version 1
nodes
0 "root" -1
end
skeleton
time 0
0 0 0 0 0 0 0
end
triangles
dummy
0 -0.5 8 4 1 0 -4.37114e-08 28.8125 8.63541 1 0 1
0 -0.500008 -8 4 1 0 -4.37114e-08 30.4792 8.63541 1 0 1
0 0.499992 -8 4 1 0 -4.37114e-08 30.4792 8.73958 1 0 1
dummy
0 0.5 8 4 1 0 -4.37114e-08 28.8125 8.73958 1 0 1
0 -0.5 8 4 1 0 -4.37114e-08 28.8125 8.63541 1 0 1
0 0.499992 -8 4 1 0 -4.37114e-08 30.4792 8.73958 1 0 1
dummy
0 -0.500008 -8 -4 1 0 -4.37114e-08 8.63541 -30.4792 1 0 1
0 -0.5 8 -4 1 0 -4.37114e-08 8.63541 -28.8125 1 0 1
0 0.5 8 -4 1 0 -4.37114e-08 8.73958 -28.8125 1 0 1
dummy
0 0.499992 -8 -4 1 0 -4.37114e-08 8.73958 -30.4792 1 0 1
0 -0.500008 -8 -4 1 0 -4.37114e-08 8.63541 -30.4792 1 0 1
0 0.5 8 -4 1 0 -4.37114e-08 8.73958 -28.8125 1 0 1
dummy
0 0.5 8 -4 1 0 -4.37114e-08 -28.9792 65.0312 1 0 1
0 0.5 8 4 1 0 -4.37114e-08 -28.9792 65.8646 1 0 1
0 0.499992 -8 4 1 0 -4.37114e-08 -30.6458 65.8646 1 0 1
dummy
0 0.499992 -8 -4 1 0 -4.37114e-08 -30.6458 65.0312 1 0 1
0 0.5 8 -4 1 0 -4.37114e-08 -28.9792 65.0312 1 0 1
0 0.499992 -8 4 1 0 -4.37114e-08 -30.6458 65.8646 1 0 1
dummy
0 -0.5 8 4 1 0 -4.37114e-08 69.75 157.875 1 0 1
0 -0.5 8 -4 1 0 -4.37114e-08 69.75 155.875 1 0 1
0 -0.500008 -8 -4 1 0 -4.37114e-08 73.75 155.875 1 0 1
dummy
0 -0.500008 -8 4 1 0 -4.37114e-08 73.75 157.875 1 0 1
0 -0.5 8 4 1 0 -4.37114e-08 69.75 157.875 1 0 1
0 -0.500008 -8 -4 1 0 -4.37114e-08 73.75 155.875 1 0 1
dummy
0 0.499992 -8 -4 1 0 -4.37114e-08 64.5938 8.73958 1 0 1
0 0.499992 -8 4 1 0 -4.37114e-08 65.4271 8.73958 1 0 1
0 -0.500008 -8 4 1 0 -4.37114e-08 65.4271 8.63541 1 0 1
dummy
0 -0.500008 -8 -4 1 0 -4.37114e-08 64.5938 8.63541 1 0 1
0 0.499992 -8 -4 1 0 -4.37114e-08 64.5938 8.73958 1 0 1
0 -0.500008 -8 4 1 0 -4.37114e-08 65.4271 8.63541 1 0 1
dummy
0 0.5 8 4 1 0 -4.37114e-08 65.4271 8.73958 1 0 1
0 0.5 8 -4 1 0 -4.37114e-08 64.5938 8.73958 1 0 1
0 -0.5 8 -4 1 0 -4.37114e-08 64.5938 8.63541 1 0 1
dummy
0 -0.5 8 4 1 0 -4.37114e-08 65.4271 8.63541 1 0 1
0 0.5 8 4 1 0 -4.37114e-08 65.4271 8.73958 1 0 1
0 -0.5 8 -4 1 0 -4.37114e-08 64.5938 8.63541 1 0 1
end
