version 1
nodes
0 "root" -1
end
skeleton
time 0
0 0 0 0 0 0 0
end
triangles
nodraw
0  -68.544235 -776.998535 338.143066  -0.085175 -0.716895 0.691958  0.052954 0.752136 0
0  -120.634087 -743.787476 338.143066  -0.604598 0.424814 0.673791  0.012349 0.674091 0
0  -131.133057 -765.156372 338.143066  -0.738340 -0.369089 0.564471  0.043975 0.661867 0
nodraw
0  -62.412521 -683.541748 -114.283447  -0.404156 0.635266 -0.658100  0.527584 0.012349 0
0  0.000000 -662.112244 338.143066  0.376056 0.711347 0.593773  0.438642 0.637169 0
0  0.000000 -662.112244 -114.283455  0.376052 0.711371 -0.593748  0.438642 0.012349 0
nodraw
0  0.000000 -662.112244 -114.283455  0.376052 0.711371 -0.593748  0.870442 0.012349 0
0  0.000000 -780.395569 338.143066  0.338200 -0.675600 0.655122  0.833441 0.637169 0
0  0.000000 -780.395569 -114.283455  0.338215 -0.675597 -0.655118  0.833441 0.012349 0
nodraw
0  0.000000 -780.395569 -114.283455  0.338215 -0.675597 -0.655118  0.200798 0.012349 0
0  -68.544235 -776.998535 338.143066  -0.085175 -0.716895 0.691958  0.103063 0.637169 0
0  -68.544235 -776.998535 -114.283463  -0.085173 -0.716878 -0.691976  0.103064 0.012349 0
nodraw
0  -62.412521 -683.541748 -114.283447  -0.404156 0.635266 -0.658100  0.212810 0.753939 0
0  0.000000 -780.395569 -114.283455  0.338215 -0.675597 -0.655118  0.245115 0.661867 0
0  -68.544235 -776.998535 -114.283463  -0.085173 -0.716878 -0.691976  0.248862 0.759529 0
nodraw
0  0.000000 -662.112244 338.143066  0.376056 0.711347 0.593773  0.012349 0.846552 0
0  -68.544235 -776.998535 338.143066  -0.085175 -0.716895 0.691958  0.052954 0.752136 0
0  0.000000 -780.395569 338.143066  0.338200 -0.675600 0.655122  0.049207 0.849799 0
nodraw
0  -131.133057 -765.156372 -114.283455  -0.738353 -0.369086 -0.564456  0.987651 0.012349 0
0  -120.634087 -743.787476 338.143066  -0.604598 0.424814 0.673791  0.953745 0.637169 0
0  -120.634087 -743.787476 -114.283455  -0.604592 0.424811 -0.673798  0.953745 0.012349 0
nodraw
0  -62.412521 -683.541748 -114.283447  -0.404156 0.635266 -0.658100  0.212810 0.753939 0
0  -131.133057 -765.156372 -114.283455  -0.738353 -0.369086 -0.564456  0.239883 0.849798 0
0  -120.634087 -743.787476 -114.283455  -0.604592 0.424811 -0.673798  0.208257 0.837575 0
nodraw
0  -62.412521 -683.541748 338.143066  -0.404149 0.635259 0.658111  0.527584 0.637169 0
0  -120.634087 -743.787476 -114.283455  -0.604592 0.424811 -0.673798  0.611344 0.012349 0
0  -120.634087 -743.787476 338.143066  -0.604598 0.424814 0.673791  0.611344 0.637169 0
nodraw
0  -68.544235 -776.998535 -114.283463  -0.085173 -0.716878 -0.691976  0.103064 0.012349 0
0  -131.133057 -765.156372 338.143066  -0.738340 -0.369089 0.564471  0.012349 0.637169 0
0  -131.133057 -765.156372 -114.283455  -0.738353 -0.369086 -0.564456  0.012349 0.012349 0
nodraw
0  68.544235 -776.998535 338.143066  0.085175 -0.716895 0.691958  0.077652 0.752136 0
0  120.634087 -743.787476 338.143066  0.604597 0.424814 0.673791  0.118256 0.674091 0
0  62.412521 -683.541748 338.143066  0.404149 0.635259 0.658111  0.113703 0.757727 0
nodraw
0  62.412521 -683.541748 -114.283447  0.404156 0.635266 -0.658100  0.719801 0.012349 0
0  0.000000 -662.112244 338.143066  0.376056 0.711347 0.593773  0.808743 0.637169 0
0  62.412521 -683.541748 338.143066  0.404149 0.635259 0.658111  0.719801 0.637169 0
nodraw
0  0.000000 -780.395569 -114.283455  0.338215 -0.675597 -0.655118  0.225496 0.012349 0
0  68.544235 -776.998535 338.143066  0.085175 -0.716895 0.691958  0.323230 0.637169 0
0  0.000000 -780.395569 338.143066  0.338200 -0.675600 0.655122  0.225496 0.637169 0
nodraw
0  62.412521 -683.541748 -114.283447  0.404156 0.635266 -0.658100  0.147508 0.757727 0
0  0.000000 -780.395569 -114.283455  0.338215 -0.675597 -0.655118  0.179813 0.849798 0
0  0.000000 -662.112244 -114.283455  0.376052 0.711371 -0.593748  0.142954 0.846552 0
nodraw
0  0.000000 -662.112244 338.143066  0.376056 0.711347 0.593773  0.118256 0.846552 0
0  68.544235 -776.998535 338.143066  0.085175 -0.716895 0.691958  0.077652 0.752136 0
0  62.412521 -683.541748 338.143066  0.404149 0.635259 0.658111  0.113703 0.757727 0
nodraw
0  131.133057 -765.156372 -114.283455  0.738353 -0.369086 -0.564456  0.895140 0.012349 0
0  120.634087 -743.787476 338.143066  0.604597 0.424814 0.673791  0.929047 0.637169 0
0  131.133057 -765.156372 338.143066  0.738340 -0.369089 0.564471  0.895140 0.637169 0
nodraw
0  62.412521 -683.541748 -114.283447  0.404156 0.635266 -0.658100  0.147508 0.757727 0
0  131.133057 -765.156372 -114.283455  0.738353 -0.369086 -0.564456  0.174580 0.661867 0
0  68.544235 -776.998535 -114.283463  0.085173 -0.716878 -0.691976  0.183559 0.752136 0
nodraw
0  62.412521 -683.541748 338.143066  0.404149 0.635259 0.658111  0.719801 0.637169 0
0  120.634087 -743.787476 -114.283455  0.604592 0.424811 -0.673798  0.636042 0.012349 0
0  62.412521 -683.541748 -114.283447  0.404156 0.635266 -0.658100  0.719801 0.012349 0
nodraw
0  68.544235 -776.998535 -114.283463  0.085173 -0.716878 -0.691976  0.323230 0.012349 0
0  131.133057 -765.156372 338.143066  0.738340 -0.369089 0.564471  0.413944 0.637169 0
0  68.544235 -776.998535 338.143066  0.085175 -0.716895 0.691958  0.323230 0.637169 0
nodraw
0  638.628296 -447.860382 338.143066  0.578261 -0.432212 0.691959  0.052954 0.752136 0
0  583.821716 -476.365936 338.143066  -0.670199 -0.311190 0.673791  0.012349 0.674091 0
0  597.078247 -496.142761 338.143066  -0.049530 -0.823966 0.564471  0.043975 0.661867 0
nodraw
0  560.758240 -395.821716 -114.283447  -0.752234 -0.032376 -0.658100  0.527584 0.012349 0
0  573.405945 -331.056152 338.143066  -0.428017 0.681348 0.593773  0.438642 0.637169 0
0  573.405945 -331.056152 -114.283455  -0.428039 0.681355 -0.593748  0.438642 0.012349 0
nodraw
0  573.405945 -331.056152 -114.283455  -0.428039 0.681355 -0.593748  0.870442 0.012349 0
0  675.842346 -390.197845 338.143066  0.754187 -0.044910 0.655122  0.833441 0.637169 0
0  675.842346 -390.197845 -114.283455  0.754192 -0.044895 -0.655118  0.833441 0.012349 0
nodraw
0  675.842346 -390.197845 -114.283455  0.754192 -0.044895 -0.655118  0.200798 0.012349 0
0  638.628296 -447.860382 338.143066  0.578261 -0.432212 0.691959  0.103063 0.637169 0
0  638.628296 -447.860382 -114.283463  0.578248 -0.432201 -0.691976  0.103064 0.012349 0
nodraw
0  560.758240 -395.821716 -114.283447  -0.752234 -0.032376 -0.658100  0.212810 0.753939 0
0  675.842346 -390.197845 -114.283455  0.754192 -0.044895 -0.655118  0.245115 0.661867 0
0  638.628296 -447.860382 -114.283463  0.578248 -0.432201 -0.691976  0.248862 0.759529 0
nodraw
0  573.405945 -331.056152 338.143066  -0.428017 0.681348 0.593773  0.012349 0.846552 0
0  638.628296 -447.860382 338.143066  0.578261 -0.432212 0.691959  0.052954 0.752136 0
0  675.842346 -390.197845 338.143066  0.754187 -0.044910 0.655122  0.049207 0.849799 0
nodraw
0  597.078247 -496.142761 -114.283455  -0.049540 -0.823974 -0.564457  0.987651 0.012349 0
0  583.821716 -476.365936 338.143066  -0.670199 -0.311190 0.673791  0.953745 0.637169 0
0  583.821716 -476.365936 -114.283455  -0.670195 -0.311186 -0.673797  0.953745 0.012349 0
nodraw
0  560.758240 -395.821716 -114.283447  -0.752234 -0.032376 -0.658100  0.212810 0.753939 0
0  597.078247 -496.142761 -114.283455  -0.049540 -0.823974 -0.564457  0.239883 0.849798 0
0  583.821716 -476.365936 -114.283455  -0.670195 -0.311186 -0.673797  0.208257 0.837575 0
nodraw
0  560.758240 -395.821716 338.143066  -0.752224 -0.032374 0.658111  0.527584 0.637169 0
0  583.821716 -476.365936 -114.283455  -0.670195 -0.311186 -0.673797  0.611344 0.012349 0
0  583.821716 -476.365936 338.143066  -0.670199 -0.311190 0.673791  0.611344 0.637169 0
nodraw
0  638.628296 -447.860382 -114.283463  0.578248 -0.432201 -0.691976  0.103064 0.012349 0
0  597.078247 -496.142761 338.143066  -0.049530 -0.823966 0.564471  0.012349 0.637169 0
0  597.078247 -496.142761 -114.283455  -0.049540 -0.823974 -0.564457  0.012349 0.012349 0
nodraw
0  707.172485 -329.138275 338.143066  0.663437 -0.284683 0.691958  0.077652 0.752136 0
0  704.455872 -267.421600 338.143066  -0.065600 0.736004 0.673791  0.118256 0.674091 0
0  623.170715 -287.720093 338.143066  -0.348076 0.667633 0.658111  0.113703 0.757727 0
nodraw
0  623.170715 -287.720093 -114.283447  -0.348079 0.667642 -0.658100  0.719801 0.012349 0
0  573.405945 -331.056152 338.143066  -0.428017 0.681348 0.593773  0.808743 0.637169 0
0  623.170715 -287.720093 338.143066  -0.348076 0.667633 0.658111  0.719801 0.637169 0
nodraw
0  675.842346 -390.197845 -114.283455  0.754192 -0.044895 -0.655118  0.225496 0.012349 0
0  707.172485 -329.138275 338.143066  0.663437 -0.284683 0.691958  0.323230 0.637169 0
0  675.842346 -390.197845 338.143066  0.754187 -0.044910 0.655122  0.225496 0.637169 0
nodraw
0  623.170715 -287.720093 -114.283447  -0.348079 0.667642 -0.658100  0.147508 0.757727 0
0  675.842346 -390.197845 -114.283455  0.754192 -0.044895 -0.655118  0.179813 0.849798 0
0  573.405945 -331.056152 -114.283455  -0.428039 0.681355 -0.593748  0.142954 0.846552 0
nodraw
0  573.405945 -331.056152 338.143066  -0.428017 0.681348 0.593773  0.118256 0.846552 0
0  707.172485 -329.138275 338.143066  0.663437 -0.284683 0.691958  0.077652 0.752136 0
0  623.170715 -287.720093 338.143066  -0.348076 0.667633 0.658111  0.113703 0.757727 0
nodraw
0  728.211304 -269.013672 -114.283455  0.688814 0.454890 -0.564456  0.895140 0.012349 0
0  704.455872 -267.421600 338.143066  -0.065600 0.736004 0.673791  0.929047 0.637169 0
0  728.211304 -269.013672 338.143066  0.688811 0.454876 0.564471  0.895140 0.637169 0
nodraw
0  623.170715 -287.720093 -114.283447  -0.348079 0.667642 -0.658100  0.147508 0.757727 0
0  728.211304 -269.013672 -114.283455  0.688814 0.454890 -0.564456  0.174580 0.661867 0
0  707.172485 -329.138275 -114.283463  0.663421 -0.284676 -0.691977  0.183559 0.752136 0
nodraw
0  623.170715 -287.720093 338.143066  -0.348076 0.667633 0.658111  0.719801 0.637169 0
0  704.455872 -267.421600 -114.283455  -0.065601 0.735998 -0.673798  0.636042 0.012349 0
0  623.170715 -287.720093 -114.283447  -0.348079 0.667642 -0.658100  0.719801 0.012349 0
nodraw
0  707.172485 -329.138275 -114.283463  0.663421 -0.284676 -0.691977  0.323230 0.012349 0
0  728.211304 -269.013672 338.143066  0.688811 0.454876 0.564471  0.413944 0.637169 0
0  707.172485 -329.138275 338.143066  0.663437 -0.284683 0.691958  0.323230 0.637169 0
nodraw
0  707.172546 329.138367 338.143066  0.663438 0.284683 0.691958  0.052954 0.752136 0
0  704.455872 267.421692 338.143066  -0.065600 -0.736004 0.673791  0.012349 0.674091 0
0  728.211304 269.013763 338.143066  0.688811 -0.454877 0.564471  0.043975 0.661867 0
nodraw
0  623.170776 287.720184 -114.283447  -0.348078 -0.667642 -0.658100  0.527584 0.012349 0
0  573.405945 331.056244 338.143066  -0.804073 -0.029999 0.593773  0.438642 0.637169 0
0  573.405945 331.056244 -114.283455  -0.804091 -0.030015 -0.593748  0.438642 0.012349 0
nodraw
0  573.405945 331.056244 -114.283455  -0.804091 -0.030015 -0.593748  0.870442 0.012349 0
0  675.842346 390.197937 338.143066  0.415986 0.630691 0.655122  0.833441 0.637169 0
0  675.842346 390.197937 -114.283455  0.415977 0.630702 -0.655118  0.833441 0.012349 0
nodraw
0  675.842346 390.197937 -114.283455  0.415977 0.630702 -0.655118  0.200798 0.012349 0
0  707.172546 329.138367 338.143066  0.663438 0.284683 0.691958  0.103063 0.637169 0
0  707.172546 329.138367 -114.283463  0.663421 0.284677 -0.691976  0.103064 0.012349 0
nodraw
0  623.170776 287.720184 -114.283447  -0.348078 -0.667642 -0.658100  0.212810 0.753939 0
0  675.842346 390.197937 -114.283455  0.415977 0.630702 -0.655118  0.245115 0.661867 0
0  707.172546 329.138367 -114.283463  0.663421 0.284677 -0.691976  0.248862 0.759529 0
nodraw
0  573.405945 331.056244 338.143066  -0.804073 -0.029999 0.593773  0.012349 0.846552 0
0  707.172546 329.138367 338.143066  0.663438 0.284683 0.691958  0.052954 0.752136 0
0  675.842346 390.197937 338.143066  0.415986 0.630691 0.655122  0.049207 0.849799 0
nodraw
0  728.211304 269.013763 -114.283455  0.688814 -0.454890 -0.564456  0.987651 0.012349 0
0  704.455872 267.421692 338.143066  -0.065600 -0.736004 0.673791  0.953745 0.637169 0
0  704.455872 267.421692 -114.283455  -0.065600 -0.735998 -0.673798  0.953745 0.012349 0
nodraw
0  623.170776 287.720184 -114.283447  -0.348078 -0.667642 -0.658100  0.212810 0.753939 0
0  728.211304 269.013763 -114.283455  0.688814 -0.454890 -0.564456  0.239883 0.849798 0
0  704.455872 267.421692 -114.283455  -0.065600 -0.735998 -0.673798  0.208257 0.837575 0
nodraw
0  623.170776 287.720184 338.143066  -0.348076 -0.667633 0.658111  0.527584 0.637169 0
0  704.455872 267.421692 -114.283455  -0.065600 -0.735998 -0.673798  0.611344 0.012349 0
0  704.455872 267.421692 338.143066  -0.065600 -0.736004 0.673791  0.611344 0.637169 0
nodraw
0  707.172546 329.138367 -114.283463  0.663421 0.284677 -0.691976  0.103064 0.012349 0
0  728.211304 269.013763 338.143066  0.688811 -0.454877 0.564471  0.012349 0.637169 0
0  728.211304 269.013763 -114.283455  0.688814 -0.454890 -0.564456  0.012349 0.012349 0
nodraw
0  638.628235 447.860474 338.143066  0.578261 0.432212 0.691959  0.077652 0.752136 0
0  583.821716 476.366028 338.143066  -0.670198 0.311191 0.673791  0.118256 0.674091 0
0  560.758179 395.821808 338.143066  -0.752225 0.032375 0.658111  0.113703 0.757727 0
nodraw
0  560.758179 395.821808 -114.283447  -0.752234 0.032375 -0.658100  0.719801 0.012349 0
0  573.405945 331.056244 338.143066  -0.804073 -0.029999 0.593773  0.808743 0.637169 0
0  560.758179 395.821808 338.143066  -0.752225 0.032375 0.658111  0.719801 0.637169 0
nodraw
0  675.842346 390.197937 -114.283455  0.415977 0.630702 -0.655118  0.225496 0.012349 0
0  638.628235 447.860474 338.143066  0.578261 0.432212 0.691959  0.323230 0.637169 0
0  675.842346 390.197937 338.143066  0.415986 0.630691 0.655122  0.225496 0.637169 0
nodraw
0  560.758179 395.821808 -114.283447  -0.752234 0.032375 -0.658100  0.147508 0.757727 0
0  675.842346 390.197937 -114.283455  0.415977 0.630702 -0.655118  0.179813 0.849798 0
0  573.405945 331.056244 -114.283455  -0.804091 -0.030015 -0.593748  0.142954 0.846552 0
nodraw
0  573.405945 331.056244 338.143066  -0.804073 -0.029999 0.593773  0.118256 0.846552 0
0  638.628235 447.860474 338.143066  0.578261 0.432212 0.691959  0.077652 0.752136 0
0  560.758179 395.821808 338.143066  -0.752225 0.032375 0.658111  0.113703 0.757727 0
nodraw
0  597.078247 496.142853 -114.283455  -0.049540 0.823974 -0.564457  0.895140 0.012349 0
0  583.821716 476.366028 338.143066  -0.670198 0.311191 0.673791  0.929047 0.637169 0
0  597.078247 496.142853 338.143066  -0.049529 0.823966 0.564471  0.895140 0.637169 0
nodraw
0  560.758179 395.821808 -114.283447  -0.752234 0.032375 -0.658100  0.147508 0.757727 0
0  597.078247 496.142853 -114.283455  -0.049540 0.823974 -0.564457  0.174580 0.661867 0
0  638.628235 447.860474 -114.283463  0.578248 0.432201 -0.691977  0.183559 0.752136 0
nodraw
0  560.758179 395.821808 338.143066  -0.752225 0.032375 0.658111  0.719801 0.637169 0
0  583.821716 476.366028 -114.283455  -0.670195 0.311186 -0.673797  0.636042 0.012349 0
0  560.758179 395.821808 -114.283447  -0.752234 0.032375 -0.658100  0.719801 0.012349 0
nodraw
0  638.628235 447.860474 -114.283463  0.578248 0.432201 -0.691977  0.323230 0.012349 0
0  597.078247 496.142853 338.143066  -0.049529 0.823966 0.564471  0.413944 0.637169 0
0  638.628235 447.860474 338.143066  0.578261 0.432212 0.691959  0.323230 0.637169 0
nodraw
0  68.544167 776.998535 338.143066  0.085175 0.716895 0.691958  0.052954 0.752136 0
0  120.634018 743.787476 338.143066  0.604597 -0.424814 0.673791  0.012349 0.674091 0
0  131.132996 765.156372 338.143066  0.738340 0.369089 0.564471  0.043975 0.661867 0
nodraw
0  62.412460 683.541748 -114.283447  0.404156 -0.635266 -0.658100  0.527584 0.012349 0
0  -0.000058 662.112244 338.143066  -0.376056 -0.711347 0.593773  0.438642 0.637169 0
0  -0.000058 662.112244 -114.283455  -0.376052 -0.711371 -0.593748  0.438642 0.012349 0
nodraw
0  -0.000058 662.112244 -114.283455  -0.376052 -0.711371 -0.593748  0.870442 0.012349 0
0  -0.000068 780.395569 338.143066  -0.338200 0.675600 0.655122  0.833441 0.637169 0
0  -0.000068 780.395569 -114.283455  -0.338215 0.675597 -0.655118  0.833441 0.012349 0
nodraw
0  -0.000068 780.395569 -114.283455  -0.338215 0.675597 -0.655118  0.200798 0.012349 0
0  68.544167 776.998535 338.143066  0.085175 0.716895 0.691958  0.103063 0.637169 0
0  68.544167 776.998535 -114.283463  0.085173 0.716878 -0.691976  0.103064 0.012349 0
nodraw
0  62.412460 683.541748 -114.283447  0.404156 -0.635266 -0.658100  0.212810 0.753939 0
0  -0.000068 780.395569 -114.283455  -0.338215 0.675597 -0.655118  0.245115 0.661867 0
0  68.544167 776.998535 -114.283463  0.085173 0.716878 -0.691976  0.248862 0.759529 0
nodraw
0  -0.000058 662.112244 338.143066  -0.376056 -0.711347 0.593773  0.012349 0.846552 0
0  68.544167 776.998535 338.143066  0.085175 0.716895 0.691958  0.052954 0.752136 0
0  -0.000068 780.395569 338.143066  -0.338200 0.675600 0.655122  0.049207 0.849799 0
nodraw
0  131.132996 765.156372 -114.283455  0.738353 0.369086 -0.564456  0.987651 0.012349 0
0  120.634018 743.787476 338.143066  0.604597 -0.424814 0.673791  0.953745 0.637169 0
0  120.634018 743.787476 -114.283455  0.604592 -0.424811 -0.673798  0.953745 0.012349 0
nodraw
0  62.412460 683.541748 -114.283447  0.404156 -0.635266 -0.658100  0.212810 0.753939 0
0  131.132996 765.156372 -114.283455  0.738353 0.369086 -0.564456  0.239883 0.849798 0
0  120.634018 743.787476 -114.283455  0.604592 -0.424811 -0.673798  0.208257 0.837575 0
nodraw
0  62.412460 683.541748 338.143066  0.404149 -0.635259 0.658111  0.527584 0.637169 0
0  120.634018 743.787476 -114.283455  0.604592 -0.424811 -0.673798  0.611344 0.012349 0
0  120.634018 743.787476 338.143066  0.604597 -0.424814 0.673791  0.611344 0.637169 0
nodraw
0  68.544167 776.998535 -114.283463  0.085173 0.716878 -0.691976  0.103064 0.012349 0
0  131.132996 765.156372 338.143066  0.738340 0.369089 0.564471  0.012349 0.637169 0
0  131.132996 765.156372 -114.283455  0.738353 0.369086 -0.564456  0.012349 0.012349 0
nodraw
0  -68.544304 776.998535 338.143066  -0.085175 0.716895 0.691958  0.077652 0.752136 0
0  -120.634155 743.787476 338.143066  -0.604598 -0.424814 0.673791  0.118256 0.674091 0
0  -62.412582 683.541748 338.143066  -0.404149 -0.635259 0.658111  0.113703 0.757727 0
nodraw
0  -62.412582 683.541748 -114.283447  -0.404156 -0.635266 -0.658100  0.719801 0.012349 0
0  -0.000058 662.112244 338.143066  -0.376056 -0.711347 0.593773  0.808743 0.637169 0
0  -62.412582 683.541748 338.143066  -0.404149 -0.635259 0.658111  0.719801 0.637169 0
nodraw
0  -0.000068 780.395569 -114.283455  -0.338215 0.675597 -0.655118  0.225496 0.012349 0
0  -68.544304 776.998535 338.143066  -0.085175 0.716895 0.691958  0.323230 0.637169 0
0  -0.000068 780.395569 338.143066  -0.338200 0.675600 0.655122  0.225496 0.637169 0
nodraw
0  -62.412582 683.541748 -114.283447  -0.404156 -0.635266 -0.658100  0.147508 0.757727 0
0  -0.000068 780.395569 -114.283455  -0.338215 0.675597 -0.655118  0.179813 0.849798 0
0  -0.000058 662.112244 -114.283455  -0.376052 -0.711371 -0.593748  0.142954 0.846552 0
nodraw
0  -0.000058 662.112244 338.143066  -0.376056 -0.711347 0.593773  0.118256 0.846552 0
0  -68.544304 776.998535 338.143066  -0.085175 0.716895 0.691958  0.077652 0.752136 0
0  -62.412582 683.541748 338.143066  -0.404149 -0.635259 0.658111  0.113703 0.757727 0
nodraw
0  -131.133118 765.156372 -114.283455  -0.738353 0.369086 -0.564456  0.895140 0.012349 0
0  -120.634155 743.787476 338.143066  -0.604598 -0.424814 0.673791  0.929047 0.637169 0
0  -131.133118 765.156372 338.143066  -0.738340 0.369089 0.564471  0.895140 0.637169 0
nodraw
0  -62.412582 683.541748 -114.283447  -0.404156 -0.635266 -0.658100  0.147508 0.757727 0
0  -131.133118 765.156372 -114.283455  -0.738353 0.369086 -0.564456  0.174580 0.661867 0
0  -68.544304 776.998535 -114.283463  -0.085173 0.716878 -0.691976  0.183559 0.752136 0
nodraw
0  -62.412582 683.541748 338.143066  -0.404149 -0.635259 0.658111  0.719801 0.637169 0
0  -120.634155 743.787476 -114.283455  -0.604592 -0.424811 -0.673798  0.636042 0.012349 0
0  -62.412582 683.541748 -114.283447  -0.404156 -0.635266 -0.658100  0.719801 0.012349 0
nodraw
0  -68.544304 776.998535 -114.283463  -0.085173 0.716878 -0.691976  0.323230 0.012349 0
0  -131.133118 765.156372 338.143066  -0.738340 0.369089 0.564471  0.413944 0.637169 0
0  -68.544304 776.998535 338.143066  -0.085175 0.716895 0.691958  0.323230 0.637169 0
nodraw
0  -638.628479 447.860260 338.143066  -0.578261 0.432212 0.691958  0.052954 0.752136 0
0  -583.821899 476.365906 338.143066  0.670199 0.311190 0.673791  0.012349 0.674091 0
0  -597.078430 496.142731 338.143066  0.049529 0.823966 0.564471  0.043975 0.661867 0
nodraw
0  -560.758362 395.821686 -114.283447  0.752234 0.032377 -0.658100  0.527584 0.012349 0
0  -573.406067 331.056091 338.143066  0.428017 -0.681348 0.593773  0.438642 0.637169 0
0  -573.406067 331.056091 -114.283455  0.428039 -0.681355 -0.593748  0.438642 0.012349 0
nodraw
0  -573.406067 331.056091 -114.283455  0.428039 -0.681355 -0.593748  0.870442 0.012349 0
0  -675.842468 390.197723 338.143066  -0.754187 0.044909 0.655122  0.833441 0.637169 0
0  -675.842468 390.197723 -114.283455  -0.754192 0.044895 -0.655118  0.833441 0.012349 0
nodraw
0  -675.842468 390.197723 -114.283455  -0.754192 0.044895 -0.655118  0.200798 0.012349 0
0  -638.628479 447.860260 338.143066  -0.578261 0.432212 0.691958  0.103063 0.637169 0
0  -638.628479 447.860260 -114.283463  -0.578249 0.432201 -0.691976  0.103064 0.012349 0
nodraw
0  -560.758362 395.821686 -114.283447  0.752234 0.032377 -0.658100  0.212810 0.753939 0
0  -675.842468 390.197723 -114.283455  -0.754192 0.044895 -0.655118  0.245115 0.661867 0
0  -638.628479 447.860260 -114.283463  -0.578249 0.432201 -0.691976  0.248862 0.759529 0
nodraw
0  -573.406067 331.056091 338.143066  0.428017 -0.681348 0.593773  0.012349 0.846552 0
0  -638.628479 447.860260 338.143066  -0.578261 0.432212 0.691958  0.052954 0.752136 0
0  -675.842468 390.197723 338.143066  -0.754187 0.044909 0.655122  0.049207 0.849799 0
nodraw
0  -597.078430 496.142731 -114.283455  0.049538 0.823975 -0.564456  0.987651 0.012349 0
0  -583.821899 476.365906 338.143066  0.670199 0.311190 0.673791  0.953745 0.637169 0
0  -583.821899 476.365906 -114.283455  0.670193 0.311188 -0.673797  0.953745 0.012349 0
nodraw
0  -560.758362 395.821686 -114.283447  0.752234 0.032377 -0.658100  0.212810 0.753939 0
0  -597.078430 496.142731 -114.283455  0.049538 0.823975 -0.564456  0.239883 0.849798 0
0  -583.821899 476.365906 -114.283455  0.670193 0.311188 -0.673797  0.208257 0.837575 0
nodraw
0  -560.758362 395.821686 338.143066  0.752225 0.032374 0.658111  0.527584 0.637169 0
0  -583.821899 476.365906 -114.283455  0.670193 0.311188 -0.673797  0.611344 0.012349 0
0  -583.821899 476.365906 338.143066  0.670199 0.311190 0.673791  0.611344 0.637169 0
nodraw
0  -638.628479 447.860260 -114.283463  -0.578249 0.432201 -0.691976  0.103064 0.012349 0
0  -597.078430 496.142731 338.143066  0.049529 0.823966 0.564471  0.012349 0.637169 0
0  -597.078430 496.142731 -114.283455  0.049538 0.823975 -0.564456  0.012349 0.012349 0
nodraw
0  -707.172668 329.138153 338.143066  -0.663437 0.284684 0.691958  0.077652 0.752136 0
0  -704.455933 267.421509 338.143066  0.065601 -0.736004 0.673791  0.118256 0.674091 0
0  -623.170837 287.720001 338.143066  0.348076 -0.667633 0.658111  0.113703 0.757727 0
nodraw
0  -623.170837 287.720001 -114.283447  0.348079 -0.667642 -0.658100  0.719801 0.012349 0
0  -573.406067 331.056091 338.143066  0.428017 -0.681348 0.593773  0.808743 0.637169 0
0  -623.170837 287.720001 338.143066  0.348076 -0.667633 0.658111  0.719801 0.637169 0
nodraw
0  -675.842468 390.197723 -114.283455  -0.754192 0.044895 -0.655118  0.225496 0.012349 0
0  -707.172668 329.138153 338.143066  -0.663437 0.284684 0.691958  0.323230 0.637169 0
0  -675.842468 390.197723 338.143066  -0.754187 0.044909 0.655122  0.225496 0.637169 0
nodraw
0  -623.170837 287.720001 -114.283447  0.348079 -0.667642 -0.658100  0.147508 0.757727 0
0  -675.842468 390.197723 -114.283455  -0.754192 0.044895 -0.655118  0.179813 0.849798 0
0  -573.406067 331.056091 -114.283455  0.428039 -0.681355 -0.593748  0.142954 0.846552 0
nodraw
0  -573.406067 331.056091 338.143066  0.428017 -0.681348 0.593773  0.118256 0.846552 0
0  -707.172668 329.138153 338.143066  -0.663437 0.284684 0.691958  0.077652 0.752136 0
0  -623.170837 287.720001 338.143066  0.348076 -0.667633 0.658111  0.113703 0.757727 0
nodraw
0  -728.211487 269.013580 -114.283455  -0.688814 -0.454890 -0.564456  0.895140 0.012349 0
0  -704.455933 267.421509 338.143066  0.065601 -0.736004 0.673791  0.929047 0.637169 0
0  -728.211487 269.013580 338.143066  -0.688810 -0.454876 0.564472  0.895140 0.637169 0
nodraw
0  -623.170837 287.720001 -114.283447  0.348079 -0.667642 -0.658100  0.147508 0.757727 0
0  -728.211487 269.013580 -114.283455  -0.688814 -0.454890 -0.564456  0.174580 0.661867 0
0  -707.172668 329.138153 -114.283463  -0.663421 0.284677 -0.691976  0.183559 0.752136 0
nodraw
0  -623.170837 287.720001 338.143066  0.348076 -0.667633 0.658111  0.719801 0.637169 0
0  -704.455933 267.421509 -114.283455  0.065601 -0.735998 -0.673798  0.636042 0.012349 0
0  -623.170837 287.720001 -114.283447  0.348079 -0.667642 -0.658100  0.719801 0.012349 0
nodraw
0  -707.172668 329.138153 -114.283463  -0.663421 0.284677 -0.691976  0.323230 0.012349 0
0  -728.211487 269.013580 338.143066  -0.688810 -0.454876 0.564472  0.413944 0.637169 0
0  -707.172668 329.138153 338.143066  -0.663437 0.284684 0.691958  0.323230 0.637169 0
nodraw
0  -707.172668 -329.138123 338.143066  -0.663437 -0.284683 0.691958  0.052954 0.752136 0
0  -704.455933 -267.421448 338.143066  0.065600 0.736004 0.673791  0.012349 0.674091 0
0  -728.211487 -269.013519 338.143066  -0.688811 0.454876 0.564471  0.043975 0.661867 0
nodraw
0  -623.170837 -287.719940 -114.283447  0.348079 0.667642 -0.658100  0.527584 0.012349 0
0  -573.406067 -331.056030 338.143066  0.804073 0.029999 0.593773  0.438642 0.637169 0
0  -573.406067 -331.056030 -114.283455  0.804091 0.030015 -0.593748  0.438642 0.012349 0
nodraw
0  -573.406067 -331.056030 -114.283455  0.804091 0.030015 -0.593748  0.870442 0.012349 0
0  -675.842468 -390.197693 338.143066  -0.415987 -0.630690 0.655122  0.833441 0.637169 0
0  -675.842468 -390.197693 -114.283455  -0.415977 -0.630701 -0.655118  0.833441 0.012349 0
nodraw
0  -675.842468 -390.197693 -114.283455  -0.415977 -0.630701 -0.655118  0.200798 0.012349 0
0  -707.172668 -329.138123 338.143066  -0.663437 -0.284683 0.691958  0.103063 0.637169 0
0  -707.172668 -329.138123 -114.283463  -0.663421 -0.284677 -0.691977  0.103064 0.012349 0
nodraw
0  -623.170837 -287.719940 -114.283447  0.348079 0.667642 -0.658100  0.212810 0.753939 0
0  -675.842468 -390.197693 -114.283455  -0.415977 -0.630701 -0.655118  0.245115 0.661867 0
0  -707.172668 -329.138123 -114.283463  -0.663421 -0.284677 -0.691977  0.248862 0.759529 0
nodraw
0  -573.406067 -331.056030 338.143066  0.804073 0.029999 0.593773  0.012349 0.846552 0
0  -707.172668 -329.138123 338.143066  -0.663437 -0.284683 0.691958  0.052954 0.752136 0
0  -675.842468 -390.197693 338.143066  -0.415987 -0.630690 0.655122  0.049207 0.849799 0
nodraw
0  -728.211487 -269.013519 -114.283455  -0.688814 0.454890 -0.564456  0.987651 0.012349 0
0  -704.455933 -267.421448 338.143066  0.065600 0.736004 0.673791  0.953745 0.637169 0
0  -704.455933 -267.421448 -114.283455  0.065601 0.735998 -0.673798  0.953745 0.012349 0
nodraw
0  -623.170837 -287.719940 -114.283447  0.348079 0.667642 -0.658100  0.212810 0.753939 0
0  -728.211487 -269.013519 -114.283455  -0.688814 0.454890 -0.564456  0.239883 0.849798 0
0  -704.455933 -267.421448 -114.283455  0.065601 0.735998 -0.673798  0.208257 0.837575 0
nodraw
0  -623.170837 -287.719940 338.143066  0.348076 0.667632 0.658111  0.527584 0.637169 0
0  -704.455933 -267.421448 -114.283455  0.065601 0.735998 -0.673798  0.611344 0.012349 0
0  -704.455933 -267.421448 338.143066  0.065600 0.736004 0.673791  0.611344 0.637169 0
nodraw
0  -707.172668 -329.138123 -114.283463  -0.663421 -0.284677 -0.691977  0.103064 0.012349 0
0  -728.211487 -269.013519 338.143066  -0.688811 0.454876 0.564471  0.012349 0.637169 0
0  -728.211487 -269.013519 -114.283455  -0.688814 0.454890 -0.564456  0.012349 0.012349 0
nodraw
0  -638.628479 -447.860229 338.143066  -0.578261 -0.432212 0.691958  0.077652 0.752136 0
0  -583.821899 -476.365845 338.143066  0.670199 -0.311190 0.673791  0.118256 0.674091 0
0  -560.758362 -395.821625 338.143066  0.752225 -0.032374 0.658111  0.113703 0.757727 0
nodraw
0  -560.758362 -395.821625 -114.283447  0.752234 -0.032377 -0.658100  0.719801 0.012349 0
0  -573.406067 -331.056030 338.143066  0.804073 0.029999 0.593773  0.808743 0.637169 0
0  -560.758362 -395.821625 338.143066  0.752225 -0.032374 0.658111  0.719801 0.637169 0
nodraw
0  -675.842468 -390.197693 -114.283455  -0.415977 -0.630701 -0.655118  0.225496 0.012349 0
0  -638.628479 -447.860229 338.143066  -0.578261 -0.432212 0.691958  0.323230 0.637169 0
0  -675.842468 -390.197693 338.143066  -0.415987 -0.630690 0.655122  0.225496 0.637169 0
nodraw
0  -560.758362 -395.821625 -114.283447  0.752234 -0.032377 -0.658100  0.147508 0.757727 0
0  -675.842468 -390.197693 -114.283455  -0.415977 -0.630701 -0.655118  0.179813 0.849798 0
0  -573.406067 -331.056030 -114.283455  0.804091 0.030015 -0.593748  0.142954 0.846552 0
nodraw
0  -573.406067 -331.056030 338.143066  0.804073 0.029999 0.593773  0.118256 0.846552 0
0  -638.628479 -447.860229 338.143066  -0.578261 -0.432212 0.691958  0.077652 0.752136 0
0  -560.758362 -395.821625 338.143066  0.752225 -0.032374 0.658111  0.113703 0.757727 0
nodraw
0  -597.078430 -496.142670 -114.283455  0.049538 -0.823975 -0.564456  0.895140 0.012349 0
0  -583.821899 -476.365845 338.143066  0.670199 -0.311190 0.673791  0.929047 0.637169 0
0  -597.078430 -496.142670 338.143066  0.049529 -0.823966 0.564471  0.895140 0.637169 0
nodraw
0  -560.758362 -395.821625 -114.283447  0.752234 -0.032377 -0.658100  0.147508 0.757727 0
0  -597.078430 -496.142670 -114.283455  0.049538 -0.823975 -0.564456  0.174580 0.661867 0
0  -638.628479 -447.860229 -114.283463  -0.578248 -0.432201 -0.691976  0.183559 0.752136 0
nodraw
0  -560.758362 -395.821625 338.143066  0.752225 -0.032374 0.658111  0.719801 0.637169 0
0  -583.821899 -476.365845 -114.283455  0.670193 -0.311188 -0.673797  0.636042 0.012349 0
0  -560.758362 -395.821625 -114.283447  0.752234 -0.032377 -0.658100  0.719801 0.012349 0
nodraw
0  -638.628479 -447.860229 -114.283463  -0.578248 -0.432201 -0.691976  0.323230 0.012349 0
0  -597.078430 -496.142670 338.143066  0.049529 -0.823966 0.564471  0.413944 0.637169 0
0  -638.628479 -447.860229 338.143066  -0.578261 -0.432212 0.691958  0.323230 0.637169 0
nodraw
0  -68.544235 -776.998535 338.143066  -0.085175 -0.716895 0.691958  0.052954 0.752136 0
0  -62.412521 -683.541748 338.143066  -0.404149 0.635259 0.658111  0.016903 0.757727 0
0  -120.634087 -743.787476 338.143066  -0.604598 0.424814 0.673791  0.012349 0.674091 0
nodraw
0  -62.412521 -683.541748 -114.283447  -0.404156 0.635266 -0.658100  0.527584 0.012349 0
0  -62.412521 -683.541748 338.143066  -0.404149 0.635259 0.658111  0.527584 0.637169 0
0  0.000000 -662.112244 338.143066  0.376056 0.711347 0.593773  0.438642 0.637169 0
nodraw
0  0.000000 -662.112244 -114.283455  0.376052 0.711371 -0.593748  0.870442 0.012349 0
0  0.000000 -662.112244 338.143066  0.376056 0.711347 0.593773  0.870442 0.637169 0
0  0.000000 -780.395569 338.143066  0.338200 -0.675600 0.655122  0.833441 0.637169 0
nodraw
0  0.000000 -780.395569 -114.283455  0.338215 -0.675597 -0.655118  0.200798 0.012349 0
0  0.000000 -780.395569 338.143066  0.338200 -0.675600 0.655122  0.200798 0.637169 0
0  -68.544235 -776.998535 338.143066  -0.085175 -0.716895 0.691958  0.103063 0.637169 0
nodraw
0  -62.412521 -683.541748 -114.283447  -0.404156 0.635266 -0.658100  0.212810 0.753939 0
0  0.000000 -662.112244 -114.283455  0.376052 0.711371 -0.593748  0.208257 0.665114 0
0  0.000000 -780.395569 -114.283455  0.338215 -0.675597 -0.655118  0.245115 0.661867 0
nodraw
0  0.000000 -662.112244 338.143066  0.376056 0.711347 0.593773  0.012349 0.846552 0
0  -62.412521 -683.541748 338.143066  -0.404149 0.635259 0.658111  0.016903 0.757727 0
0  -68.544235 -776.998535 338.143066  -0.085175 -0.716895 0.691958  0.052954 0.752136 0
nodraw
0  -131.133057 -765.156372 -114.283455  -0.738353 -0.369086 -0.564456  0.987651 0.012349 0
0  -131.133057 -765.156372 338.143066  -0.738340 -0.369089 0.564471  0.987651 0.637169 0
0  -120.634087 -743.787476 338.143066  -0.604598 0.424814 0.673791  0.953745 0.637169 0
nodraw
0  -62.412521 -683.541748 -114.283447  -0.404156 0.635266 -0.658100  0.212810 0.753939 0
0  -68.544235 -776.998535 -114.283463  -0.085173 -0.716878 -0.691976  0.248862 0.759529 0
0  -131.133057 -765.156372 -114.283455  -0.738353 -0.369086 -0.564456  0.239883 0.849798 0
nodraw
0  -62.412521 -683.541748 338.143066  -0.404149 0.635259 0.658111  0.527584 0.637169 0
0  -62.412521 -683.541748 -114.283447  -0.404156 0.635266 -0.658100  0.527584 0.012349 0
0  -120.634087 -743.787476 -114.283455  -0.604592 0.424811 -0.673798  0.611344 0.012349 0
nodraw
0  -68.544235 -776.998535 -114.283463  -0.085173 -0.716878 -0.691976  0.103064 0.012349 0
0  -68.544235 -776.998535 338.143066  -0.085175 -0.716895 0.691958  0.103063 0.637169 0
0  -131.133057 -765.156372 338.143066  -0.738340 -0.369089 0.564471  0.012349 0.637169 0
nodraw
0  68.544235 -776.998535 338.143066  0.085175 -0.716895 0.691958  0.077652 0.752136 0
0  131.133057 -765.156372 338.143066  0.738340 -0.369089 0.564471  0.086630 0.661867 0
0  120.634087 -743.787476 338.143066  0.604597 0.424814 0.673791  0.118256 0.674091 0
nodraw
0  62.412521 -683.541748 -114.283447  0.404156 0.635266 -0.658100  0.719801 0.012349 0
0  0.000000 -662.112244 -114.283455  0.376052 0.711371 -0.593748  0.808743 0.012349 0
0  0.000000 -662.112244 338.143066  0.376056 0.711347 0.593773  0.808743 0.637169 0
nodraw
0  0.000000 -780.395569 -114.283455  0.338215 -0.675597 -0.655118  0.225496 0.012349 0
0  68.544235 -776.998535 -114.283463  0.085173 -0.716878 -0.691976  0.323230 0.012349 0
0  68.544235 -776.998535 338.143066  0.085175 -0.716895 0.691958  0.323230 0.637169 0
nodraw
0  62.412521 -683.541748 -114.283447  0.404156 0.635266 -0.658100  0.147508 0.757727 0
0  68.544235 -776.998535 -114.283463  0.085173 -0.716878 -0.691976  0.183559 0.752136 0
0  0.000000 -780.395569 -114.283455  0.338215 -0.675597 -0.655118  0.179813 0.849798 0
nodraw
0  0.000000 -662.112244 338.143066  0.376056 0.711347 0.593773  0.118256 0.846552 0
0  0.000000 -780.395569 338.143066  0.338200 -0.675600 0.655122  0.081398 0.849799 0
0  68.544235 -776.998535 338.143066  0.085175 -0.716895 0.691958  0.077652 0.752136 0
nodraw
0  131.133057 -765.156372 -114.283455  0.738353 -0.369086 -0.564456  0.895140 0.012349 0
0  120.634087 -743.787476 -114.283455  0.604592 0.424811 -0.673798  0.929047 0.012349 0
0  120.634087 -743.787476 338.143066  0.604597 0.424814 0.673791  0.929047 0.637169 0
nodraw
0  62.412521 -683.541748 -114.283447  0.404156 0.635266 -0.658100  0.147508 0.757727 0
0  120.634087 -743.787476 -114.283455  0.604592 0.424811 -0.673798  0.142954 0.674091 0
0  131.133057 -765.156372 -114.283455  0.738353 -0.369086 -0.564456  0.174580 0.661867 0
nodraw
0  62.412521 -683.541748 338.143066  0.404149 0.635259 0.658111  0.719801 0.637169 0
0  120.634087 -743.787476 338.143066  0.604597 0.424814 0.673791  0.636042 0.637169 0
0  120.634087 -743.787476 -114.283455  0.604592 0.424811 -0.673798  0.636042 0.012349 0
nodraw
0  68.544235 -776.998535 -114.283463  0.085173 -0.716878 -0.691976  0.323230 0.012349 0
0  131.133057 -765.156372 -114.283455  0.738353 -0.369086 -0.564456  0.413944 0.012349 0
0  131.133057 -765.156372 338.143066  0.738340 -0.369089 0.564471  0.413944 0.637169 0
nodraw
0  638.628296 -447.860382 338.143066  0.578261 -0.432212 0.691959  0.052954 0.752136 0
0  560.758240 -395.821716 338.143066  -0.752224 -0.032374 0.658111  0.016903 0.757727 0
0  583.821716 -476.365936 338.143066  -0.670199 -0.311190 0.673791  0.012349 0.674091 0
nodraw
0  560.758240 -395.821716 -114.283447  -0.752234 -0.032376 -0.658100  0.527584 0.012349 0
0  560.758240 -395.821716 338.143066  -0.752224 -0.032374 0.658111  0.527584 0.637169 0
0  573.405945 -331.056152 338.143066  -0.428017 0.681348 0.593773  0.438642 0.637169 0
nodraw
0  573.405945 -331.056152 -114.283455  -0.428039 0.681355 -0.593748  0.870442 0.012349 0
0  573.405945 -331.056152 338.143066  -0.428017 0.681348 0.593773  0.870442 0.637169 0
0  675.842346 -390.197845 338.143066  0.754187 -0.044910 0.655122  0.833441 0.637169 0
nodraw
0  675.842346 -390.197845 -114.283455  0.754192 -0.044895 -0.655118  0.200798 0.012349 0
0  675.842346 -390.197845 338.143066  0.754187 -0.044910 0.655122  0.200798 0.637169 0
0  638.628296 -447.860382 338.143066  0.578261 -0.432212 0.691959  0.103063 0.637169 0
nodraw
0  560.758240 -395.821716 -114.283447  -0.752234 -0.032376 -0.658100  0.212810 0.753939 0
0  573.405945 -331.056152 -114.283455  -0.428039 0.681355 -0.593748  0.208257 0.665114 0
0  675.842346 -390.197845 -114.283455  0.754192 -0.044895 -0.655118  0.245115 0.661867 0
nodraw
0  573.405945 -331.056152 338.143066  -0.428017 0.681348 0.593773  0.012349 0.846552 0
0  560.758240 -395.821716 338.143066  -0.752224 -0.032374 0.658111  0.016903 0.757727 0
0  638.628296 -447.860382 338.143066  0.578261 -0.432212 0.691959  0.052954 0.752136 0
nodraw
0  597.078247 -496.142761 -114.283455  -0.049540 -0.823974 -0.564457  0.987651 0.012349 0
0  597.078247 -496.142761 338.143066  -0.049530 -0.823966 0.564471  0.987651 0.637169 0
0  583.821716 -476.365936 338.143066  -0.670199 -0.311190 0.673791  0.953745 0.637169 0
nodraw
0  560.758240 -395.821716 -114.283447  -0.752234 -0.032376 -0.658100  0.212810 0.753939 0
0  638.628296 -447.860382 -114.283463  0.578248 -0.432201 -0.691976  0.248862 0.759529 0
0  597.078247 -496.142761 -114.283455  -0.049540 -0.823974 -0.564457  0.239883 0.849798 0
nodraw
0  560.758240 -395.821716 338.143066  -0.752224 -0.032374 0.658111  0.527584 0.637169 0
0  560.758240 -395.821716 -114.283447  -0.752234 -0.032376 -0.658100  0.527584 0.012349 0
0  583.821716 -476.365936 -114.283455  -0.670195 -0.311186 -0.673797  0.611344 0.012349 0
nodraw
0  638.628296 -447.860382 -114.283463  0.578248 -0.432201 -0.691976  0.103064 0.012349 0
0  638.628296 -447.860382 338.143066  0.578261 -0.432212 0.691959  0.103063 0.637169 0
0  597.078247 -496.142761 338.143066  -0.049530 -0.823966 0.564471  0.012349 0.637169 0
nodraw
0  707.172485 -329.138275 338.143066  0.663437 -0.284683 0.691958  0.077652 0.752136 0
0  728.211304 -269.013672 338.143066  0.688811 0.454876 0.564471  0.086630 0.661867 0
0  704.455872 -267.421600 338.143066  -0.065600 0.736004 0.673791  0.118256 0.674091 0
nodraw
0  623.170715 -287.720093 -114.283447  -0.348079 0.667642 -0.658100  0.719801 0.012349 0
0  573.405945 -331.056152 -114.283455  -0.428039 0.681355 -0.593748  0.808743 0.012349 0
0  573.405945 -331.056152 338.143066  -0.428017 0.681348 0.593773  0.808743 0.637169 0
nodraw
0  675.842346 -390.197845 -114.283455  0.754192 -0.044895 -0.655118  0.225496 0.012349 0
0  707.172485 -329.138275 -114.283463  0.663421 -0.284676 -0.691977  0.323230 0.012349 0
0  707.172485 -329.138275 338.143066  0.663437 -0.284683 0.691958  0.323230 0.637169 0
nodraw
0  623.170715 -287.720093 -114.283447  -0.348079 0.667642 -0.658100  0.147508 0.757727 0
0  707.172485 -329.138275 -114.283463  0.663421 -0.284676 -0.691977  0.183559 0.752136 0
0  675.842346 -390.197845 -114.283455  0.754192 -0.044895 -0.655118  0.179813 0.849798 0
nodraw
0  573.405945 -331.056152 338.143066  -0.428017 0.681348 0.593773  0.118256 0.846552 0
0  675.842346 -390.197845 338.143066  0.754187 -0.044910 0.655122  0.081398 0.849799 0
0  707.172485 -329.138275 338.143066  0.663437 -0.284683 0.691958  0.077652 0.752136 0
nodraw
0  728.211304 -269.013672 -114.283455  0.688814 0.454890 -0.564456  0.895140 0.012349 0
0  704.455872 -267.421600 -114.283455  -0.065601 0.735998 -0.673798  0.929047 0.012349 0
0  704.455872 -267.421600 338.143066  -0.065600 0.736004 0.673791  0.929047 0.637169 0
nodraw
0  623.170715 -287.720093 -114.283447  -0.348079 0.667642 -0.658100  0.147508 0.757727 0
0  704.455872 -267.421600 -114.283455  -0.065601 0.735998 -0.673798  0.142954 0.674091 0
0  728.211304 -269.013672 -114.283455  0.688814 0.454890 -0.564456  0.174580 0.661867 0
nodraw
0  623.170715 -287.720093 338.143066  -0.348076 0.667633 0.658111  0.719801 0.637169 0
0  704.455872 -267.421600 338.143066  -0.065600 0.736004 0.673791  0.636042 0.637169 0
0  704.455872 -267.421600 -114.283455  -0.065601 0.735998 -0.673798  0.636042 0.012349 0
nodraw
0  707.172485 -329.138275 -114.283463  0.663421 -0.284676 -0.691977  0.323230 0.012349 0
0  728.211304 -269.013672 -114.283455  0.688814 0.454890 -0.564456  0.413944 0.012349 0
0  728.211304 -269.013672 338.143066  0.688811 0.454876 0.564471  0.413944 0.637169 0
nodraw
0  707.172546 329.138367 338.143066  0.663438 0.284683 0.691958  0.052954 0.752136 0
0  623.170776 287.720184 338.143066  -0.348076 -0.667633 0.658111  0.016903 0.757727 0
0  704.455872 267.421692 338.143066  -0.065600 -0.736004 0.673791  0.012349 0.674091 0
nodraw
0  623.170776 287.720184 -114.283447  -0.348078 -0.667642 -0.658100  0.527584 0.012349 0
0  623.170776 287.720184 338.143066  -0.348076 -0.667633 0.658111  0.527584 0.637169 0
0  573.405945 331.056244 338.143066  -0.804073 -0.029999 0.593773  0.438642 0.637169 0
nodraw
0  573.405945 331.056244 -114.283455  -0.804091 -0.030015 -0.593748  0.870442 0.012349 0
0  573.405945 331.056244 338.143066  -0.804073 -0.029999 0.593773  0.870442 0.637169 0
0  675.842346 390.197937 338.143066  0.415986 0.630691 0.655122  0.833441 0.637169 0
nodraw
0  675.842346 390.197937 -114.283455  0.415977 0.630702 -0.655118  0.200798 0.012349 0
0  675.842346 390.197937 338.143066  0.415986 0.630691 0.655122  0.200798 0.637169 0
0  707.172546 329.138367 338.143066  0.663438 0.284683 0.691958  0.103063 0.637169 0
nodraw
0  623.170776 287.720184 -114.283447  -0.348078 -0.667642 -0.658100  0.212810 0.753939 0
0  573.405945 331.056244 -114.283455  -0.804091 -0.030015 -0.593748  0.208257 0.665114 0
0  675.842346 390.197937 -114.283455  0.415977 0.630702 -0.655118  0.245115 0.661867 0
nodraw
0  573.405945 331.056244 338.143066  -0.804073 -0.029999 0.593773  0.012349 0.846552 0
0  623.170776 287.720184 338.143066  -0.348076 -0.667633 0.658111  0.016903 0.757727 0
0  707.172546 329.138367 338.143066  0.663438 0.284683 0.691958  0.052954 0.752136 0
nodraw
0  728.211304 269.013763 -114.283455  0.688814 -0.454890 -0.564456  0.987651 0.012349 0
0  728.211304 269.013763 338.143066  0.688811 -0.454877 0.564471  0.987651 0.637169 0
0  704.455872 267.421692 338.143066  -0.065600 -0.736004 0.673791  0.953745 0.637169 0
nodraw
0  623.170776 287.720184 -114.283447  -0.348078 -0.667642 -0.658100  0.212810 0.753939 0
0  707.172546 329.138367 -114.283463  0.663421 0.284677 -0.691976  0.248862 0.759529 0
0  728.211304 269.013763 -114.283455  0.688814 -0.454890 -0.564456  0.239883 0.849798 0
nodraw
0  623.170776 287.720184 338.143066  -0.348076 -0.667633 0.658111  0.527584 0.637169 0
0  623.170776 287.720184 -114.283447  -0.348078 -0.667642 -0.658100  0.527584 0.012349 0
0  704.455872 267.421692 -114.283455  -0.065600 -0.735998 -0.673798  0.611344 0.012349 0
nodraw
0  707.172546 329.138367 -114.283463  0.663421 0.284677 -0.691976  0.103064 0.012349 0
0  707.172546 329.138367 338.143066  0.663438 0.284683 0.691958  0.103063 0.637169 0
0  728.211304 269.013763 338.143066  0.688811 -0.454877 0.564471  0.012349 0.637169 0
nodraw
0  638.628235 447.860474 338.143066  0.578261 0.432212 0.691959  0.077652 0.752136 0
0  597.078247 496.142853 338.143066  -0.049529 0.823966 0.564471  0.086630 0.661867 0
0  583.821716 476.366028 338.143066  -0.670198 0.311191 0.673791  0.118256 0.674091 0
nodraw
0  560.758179 395.821808 -114.283447  -0.752234 0.032375 -0.658100  0.719801 0.012349 0
0  573.405945 331.056244 -114.283455  -0.804091 -0.030015 -0.593748  0.808743 0.012349 0
0  573.405945 331.056244 338.143066  -0.804073 -0.029999 0.593773  0.808743 0.637169 0
nodraw
0  675.842346 390.197937 -114.283455  0.415977 0.630702 -0.655118  0.225496 0.012349 0
0  638.628235 447.860474 -114.283463  0.578248 0.432201 -0.691977  0.323230 0.012349 0
0  638.628235 447.860474 338.143066  0.578261 0.432212 0.691959  0.323230 0.637169 0
nodraw
0  560.758179 395.821808 -114.283447  -0.752234 0.032375 -0.658100  0.147508 0.757727 0
0  638.628235 447.860474 -114.283463  0.578248 0.432201 -0.691977  0.183559 0.752136 0
0  675.842346 390.197937 -114.283455  0.415977 0.630702 -0.655118  0.179813 0.849798 0
nodraw
0  573.405945 331.056244 338.143066  -0.804073 -0.029999 0.593773  0.118256 0.846552 0
0  675.842346 390.197937 338.143066  0.415986 0.630691 0.655122  0.081398 0.849799 0
0  638.628235 447.860474 338.143066  0.578261 0.432212 0.691959  0.077652 0.752136 0
nodraw
0  597.078247 496.142853 -114.283455  -0.049540 0.823974 -0.564457  0.895140 0.012349 0
0  583.821716 476.366028 -114.283455  -0.670195 0.311186 -0.673797  0.929047 0.012349 0
0  583.821716 476.366028 338.143066  -0.670198 0.311191 0.673791  0.929047 0.637169 0
nodraw
0  560.758179 395.821808 -114.283447  -0.752234 0.032375 -0.658100  0.147508 0.757727 0
0  583.821716 476.366028 -114.283455  -0.670195 0.311186 -0.673797  0.142954 0.674091 0
0  597.078247 496.142853 -114.283455  -0.049540 0.823974 -0.564457  0.174580 0.661867 0
nodraw
0  560.758179 395.821808 338.143066  -0.752225 0.032375 0.658111  0.719801 0.637169 0
0  583.821716 476.366028 338.143066  -0.670198 0.311191 0.673791  0.636042 0.637169 0
0  583.821716 476.366028 -114.283455  -0.670195 0.311186 -0.673797  0.636042 0.012349 0
nodraw
0  638.628235 447.860474 -114.283463  0.578248 0.432201 -0.691977  0.323230 0.012349 0
0  597.078247 496.142853 -114.283455  -0.049540 0.823974 -0.564457  0.413944 0.012349 0
0  597.078247 496.142853 338.143066  -0.049529 0.823966 0.564471  0.413944 0.637169 0
nodraw
0  68.544167 776.998535 338.143066  0.085175 0.716895 0.691958  0.052954 0.752136 0
0  62.412460 683.541748 338.143066  0.404149 -0.635259 0.658111  0.016903 0.757727 0
0  120.634018 743.787476 338.143066  0.604597 -0.424814 0.673791  0.012349 0.674091 0
nodraw
0  62.412460 683.541748 -114.283447  0.404156 -0.635266 -0.658100  0.527584 0.012349 0
0  62.412460 683.541748 338.143066  0.404149 -0.635259 0.658111  0.527584 0.637169 0
0  -0.000058 662.112244 338.143066  -0.376056 -0.711347 0.593773  0.438642 0.637169 0
nodraw
0  -0.000058 662.112244 -114.283455  -0.376052 -0.711371 -0.593748  0.870442 0.012349 0
0  -0.000058 662.112244 338.143066  -0.376056 -0.711347 0.593773  0.870442 0.637169 0
0  -0.000068 780.395569 338.143066  -0.338200 0.675600 0.655122  0.833441 0.637169 0
nodraw
0  -0.000068 780.395569 -114.283455  -0.338215 0.675597 -0.655118  0.200798 0.012349 0
0  -0.000068 780.395569 338.143066  -0.338200 0.675600 0.655122  0.200798 0.637169 0
0  68.544167 776.998535 338.143066  0.085175 0.716895 0.691958  0.103063 0.637169 0
nodraw
0  62.412460 683.541748 -114.283447  0.404156 -0.635266 -0.658100  0.212810 0.753939 0
0  -0.000058 662.112244 -114.283455  -0.376052 -0.711371 -0.593748  0.208257 0.665114 0
0  -0.000068 780.395569 -114.283455  -0.338215 0.675597 -0.655118  0.245115 0.661867 0
nodraw
0  -0.000058 662.112244 338.143066  -0.376056 -0.711347 0.593773  0.012349 0.846552 0
0  62.412460 683.541748 338.143066  0.404149 -0.635259 0.658111  0.016903 0.757727 0
0  68.544167 776.998535 338.143066  0.085175 0.716895 0.691958  0.052954 0.752136 0
nodraw
0  131.132996 765.156372 -114.283455  0.738353 0.369086 -0.564456  0.987651 0.012349 0
0  131.132996 765.156372 338.143066  0.738340 0.369089 0.564471  0.987651 0.637169 0
0  120.634018 743.787476 338.143066  0.604597 -0.424814 0.673791  0.953745 0.637169 0
nodraw
0  62.412460 683.541748 -114.283447  0.404156 -0.635266 -0.658100  0.212810 0.753939 0
0  68.544167 776.998535 -114.283463  0.085173 0.716878 -0.691976  0.248862 0.759529 0
0  131.132996 765.156372 -114.283455  0.738353 0.369086 -0.564456  0.239883 0.849798 0
nodraw
0  62.412460 683.541748 338.143066  0.404149 -0.635259 0.658111  0.527584 0.637169 0
0  62.412460 683.541748 -114.283447  0.404156 -0.635266 -0.658100  0.527584 0.012349 0
0  120.634018 743.787476 -114.283455  0.604592 -0.424811 -0.673798  0.611344 0.012349 0
nodraw
0  68.544167 776.998535 -114.283463  0.085173 0.716878 -0.691976  0.103064 0.012349 0
0  68.544167 776.998535 338.143066  0.085175 0.716895 0.691958  0.103063 0.637169 0
0  131.132996 765.156372 338.143066  0.738340 0.369089 0.564471  0.012349 0.637169 0
nodraw
0  -68.544304 776.998535 338.143066  -0.085175 0.716895 0.691958  0.077652 0.752136 0
0  -131.133118 765.156372 338.143066  -0.738340 0.369089 0.564471  0.086630 0.661867 0
0  -120.634155 743.787476 338.143066  -0.604598 -0.424814 0.673791  0.118256 0.674091 0
nodraw
0  -62.412582 683.541748 -114.283447  -0.404156 -0.635266 -0.658100  0.719801 0.012349 0
0  -0.000058 662.112244 -114.283455  -0.376052 -0.711371 -0.593748  0.808743 0.012349 0
0  -0.000058 662.112244 338.143066  -0.376056 -0.711347 0.593773  0.808743 0.637169 0
nodraw
0  -0.000068 780.395569 -114.283455  -0.338215 0.675597 -0.655118  0.225496 0.012349 0
0  -68.544304 776.998535 -114.283463  -0.085173 0.716878 -0.691976  0.323230 0.012349 0
0  -68.544304 776.998535 338.143066  -0.085175 0.716895 0.691958  0.323230 0.637169 0
nodraw
0  -62.412582 683.541748 -114.283447  -0.404156 -0.635266 -0.658100  0.147508 0.757727 0
0  -68.544304 776.998535 -114.283463  -0.085173 0.716878 -0.691976  0.183559 0.752136 0
0  -0.000068 780.395569 -114.283455  -0.338215 0.675597 -0.655118  0.179813 0.849798 0
nodraw
0  -0.000058 662.112244 338.143066  -0.376056 -0.711347 0.593773  0.118256 0.846552 0
0  -0.000068 780.395569 338.143066  -0.338200 0.675600 0.655122  0.081398 0.849799 0
0  -68.544304 776.998535 338.143066  -0.085175 0.716895 0.691958  0.077652 0.752136 0
nodraw
0  -131.133118 765.156372 -114.283455  -0.738353 0.369086 -0.564456  0.895140 0.012349 0
0  -120.634155 743.787476 -114.283455  -0.604592 -0.424811 -0.673798  0.929047 0.012349 0
0  -120.634155 743.787476 338.143066  -0.604598 -0.424814 0.673791  0.929047 0.637169 0
nodraw
0  -62.412582 683.541748 -114.283447  -0.404156 -0.635266 -0.658100  0.147508 0.757727 0
0  -120.634155 743.787476 -114.283455  -0.604592 -0.424811 -0.673798  0.142954 0.674091 0
0  -131.133118 765.156372 -114.283455  -0.738353 0.369086 -0.564456  0.174580 0.661867 0
nodraw
0  -62.412582 683.541748 338.143066  -0.404149 -0.635259 0.658111  0.719801 0.637169 0
0  -120.634155 743.787476 338.143066  -0.604598 -0.424814 0.673791  0.636042 0.637169 0
0  -120.634155 743.787476 -114.283455  -0.604592 -0.424811 -0.673798  0.636042 0.012349 0
nodraw
0  -68.544304 776.998535 -114.283463  -0.085173 0.716878 -0.691976  0.323230 0.012349 0
0  -131.133118 765.156372 -114.283455  -0.738353 0.369086 -0.564456  0.413944 0.012349 0
0  -131.133118 765.156372 338.143066  -0.738340 0.369089 0.564471  0.413944 0.637169 0
nodraw
0  -638.628479 447.860260 338.143066  -0.578261 0.432212 0.691958  0.052954 0.752136 0
0  -560.758362 395.821686 338.143066  0.752225 0.032374 0.658111  0.016903 0.757727 0
0  -583.821899 476.365906 338.143066  0.670199 0.311190 0.673791  0.012349 0.674091 0
nodraw
0  -560.758362 395.821686 -114.283447  0.752234 0.032377 -0.658100  0.527584 0.012349 0
0  -560.758362 395.821686 338.143066  0.752225 0.032374 0.658111  0.527584 0.637169 0
0  -573.406067 331.056091 338.143066  0.428017 -0.681348 0.593773  0.438642 0.637169 0
nodraw
0  -573.406067 331.056091 -114.283455  0.428039 -0.681355 -0.593748  0.870442 0.012349 0
0  -573.406067 331.056091 338.143066  0.428017 -0.681348 0.593773  0.870442 0.637169 0
0  -675.842468 390.197723 338.143066  -0.754187 0.044909 0.655122  0.833441 0.637169 0
nodraw
0  -675.842468 390.197723 -114.283455  -0.754192 0.044895 -0.655118  0.200798 0.012349 0
0  -675.842468 390.197723 338.143066  -0.754187 0.044909 0.655122  0.200798 0.637169 0
0  -638.628479 447.860260 338.143066  -0.578261 0.432212 0.691958  0.103063 0.637169 0
nodraw
0  -560.758362 395.821686 -114.283447  0.752234 0.032377 -0.658100  0.212810 0.753939 0
0  -573.406067 331.056091 -114.283455  0.428039 -0.681355 -0.593748  0.208257 0.665114 0
0  -675.842468 390.197723 -114.283455  -0.754192 0.044895 -0.655118  0.245115 0.661867 0
nodraw
0  -573.406067 331.056091 338.143066  0.428017 -0.681348 0.593773  0.012349 0.846552 0
0  -560.758362 395.821686 338.143066  0.752225 0.032374 0.658111  0.016903 0.757727 0
0  -638.628479 447.860260 338.143066  -0.578261 0.432212 0.691958  0.052954 0.752136 0
nodraw
0  -597.078430 496.142731 -114.283455  0.049538 0.823975 -0.564456  0.987651 0.012349 0
0  -597.078430 496.142731 338.143066  0.049529 0.823966 0.564471  0.987651 0.637169 0
0  -583.821899 476.365906 338.143066  0.670199 0.311190 0.673791  0.953745 0.637169 0
nodraw
0  -560.758362 395.821686 -114.283447  0.752234 0.032377 -0.658100  0.212810 0.753939 0
0  -638.628479 447.860260 -114.283463  -0.578249 0.432201 -0.691976  0.248862 0.759529 0
0  -597.078430 496.142731 -114.283455  0.049538 0.823975 -0.564456  0.239883 0.849798 0
nodraw
0  -560.758362 395.821686 338.143066  0.752225 0.032374 0.658111  0.527584 0.637169 0
0  -560.758362 395.821686 -114.283447  0.752234 0.032377 -0.658100  0.527584 0.012349 0
0  -583.821899 476.365906 -114.283455  0.670193 0.311188 -0.673797  0.611344 0.012349 0
nodraw
0  -638.628479 447.860260 -114.283463  -0.578249 0.432201 -0.691976  0.103064 0.012349 0
0  -638.628479 447.860260 338.143066  -0.578261 0.432212 0.691958  0.103063 0.637169 0
0  -597.078430 496.142731 338.143066  0.049529 0.823966 0.564471  0.012349 0.637169 0
nodraw
0  -707.172668 329.138153 338.143066  -0.663437 0.284684 0.691958  0.077652 0.752136 0
0  -728.211487 269.013580 338.143066  -0.688810 -0.454876 0.564472  0.086630 0.661867 0
0  -704.455933 267.421509 338.143066  0.065601 -0.736004 0.673791  0.118256 0.674091 0
nodraw
0  -623.170837 287.720001 -114.283447  0.348079 -0.667642 -0.658100  0.719801 0.012349 0
0  -573.406067 331.056091 -114.283455  0.428039 -0.681355 -0.593748  0.808743 0.012349 0
0  -573.406067 331.056091 338.143066  0.428017 -0.681348 0.593773  0.808743 0.637169 0
nodraw
0  -675.842468 390.197723 -114.283455  -0.754192 0.044895 -0.655118  0.225496 0.012349 0
0  -707.172668 329.138153 -114.283463  -0.663421 0.284677 -0.691976  0.323230 0.012349 0
0  -707.172668 329.138153 338.143066  -0.663437 0.284684 0.691958  0.323230 0.637169 0
nodraw
0  -623.170837 287.720001 -114.283447  0.348079 -0.667642 -0.658100  0.147508 0.757727 0
0  -707.172668 329.138153 -114.283463  -0.663421 0.284677 -0.691976  0.183559 0.752136 0
0  -675.842468 390.197723 -114.283455  -0.754192 0.044895 -0.655118  0.179813 0.849798 0
nodraw
0  -573.406067 331.056091 338.143066  0.428017 -0.681348 0.593773  0.118256 0.846552 0
0  -675.842468 390.197723 338.143066  -0.754187 0.044909 0.655122  0.081398 0.849799 0
0  -707.172668 329.138153 338.143066  -0.663437 0.284684 0.691958  0.077652 0.752136 0
nodraw
0  -728.211487 269.013580 -114.283455  -0.688814 -0.454890 -0.564456  0.895140 0.012349 0
0  -704.455933 267.421509 -114.283455  0.065601 -0.735998 -0.673798  0.929047 0.012349 0
0  -704.455933 267.421509 338.143066  0.065601 -0.736004 0.673791  0.929047 0.637169 0
nodraw
0  -623.170837 287.720001 -114.283447  0.348079 -0.667642 -0.658100  0.147508 0.757727 0
0  -704.455933 267.421509 -114.283455  0.065601 -0.735998 -0.673798  0.142954 0.674091 0
0  -728.211487 269.013580 -114.283455  -0.688814 -0.454890 -0.564456  0.174580 0.661867 0
nodraw
0  -623.170837 287.720001 338.143066  0.348076 -0.667633 0.658111  0.719801 0.637169 0
0  -704.455933 267.421509 338.143066  0.065601 -0.736004 0.673791  0.636042 0.637169 0
0  -704.455933 267.421509 -114.283455  0.065601 -0.735998 -0.673798  0.636042 0.012349 0
nodraw
0  -707.172668 329.138153 -114.283463  -0.663421 0.284677 -0.691976  0.323230 0.012349 0
0  -728.211487 269.013580 -114.283455  -0.688814 -0.454890 -0.564456  0.413944 0.012349 0
0  -728.211487 269.013580 338.143066  -0.688810 -0.454876 0.564472  0.413944 0.637169 0
nodraw
0  -707.172668 -329.138123 338.143066  -0.663437 -0.284683 0.691958  0.052954 0.752136 0
0  -623.170837 -287.719940 338.143066  0.348076 0.667632 0.658111  0.016903 0.757727 0
0  -704.455933 -267.421448 338.143066  0.065600 0.736004 0.673791  0.012349 0.674091 0
nodraw
0  -623.170837 -287.719940 -114.283447  0.348079 0.667642 -0.658100  0.527584 0.012349 0
0  -623.170837 -287.719940 338.143066  0.348076 0.667632 0.658111  0.527584 0.637169 0
0  -573.406067 -331.056030 338.143066  0.804073 0.029999 0.593773  0.438642 0.637169 0
nodraw
0  -573.406067 -331.056030 -114.283455  0.804091 0.030015 -0.593748  0.870442 0.012349 0
0  -573.406067 -331.056030 338.143066  0.804073 0.029999 0.593773  0.870442 0.637169 0
0  -675.842468 -390.197693 338.143066  -0.415987 -0.630690 0.655122  0.833441 0.637169 0
nodraw
0  -675.842468 -390.197693 -114.283455  -0.415977 -0.630701 -0.655118  0.200798 0.012349 0
0  -675.842468 -390.197693 338.143066  -0.415987 -0.630690 0.655122  0.200798 0.637169 0
0  -707.172668 -329.138123 338.143066  -0.663437 -0.284683 0.691958  0.103063 0.637169 0
nodraw
0  -623.170837 -287.719940 -114.283447  0.348079 0.667642 -0.658100  0.212810 0.753939 0
0  -573.406067 -331.056030 -114.283455  0.804091 0.030015 -0.593748  0.208257 0.665114 0
0  -675.842468 -390.197693 -114.283455  -0.415977 -0.630701 -0.655118  0.245115 0.661867 0
nodraw
0  -573.406067 -331.056030 338.143066  0.804073 0.029999 0.593773  0.012349 0.846552 0
0  -623.170837 -287.719940 338.143066  0.348076 0.667632 0.658111  0.016903 0.757727 0
0  -707.172668 -329.138123 338.143066  -0.663437 -0.284683 0.691958  0.052954 0.752136 0
nodraw
0  -728.211487 -269.013519 -114.283455  -0.688814 0.454890 -0.564456  0.987651 0.012349 0
0  -728.211487 -269.013519 338.143066  -0.688811 0.454876 0.564471  0.987651 0.637169 0
0  -704.455933 -267.421448 338.143066  0.065600 0.736004 0.673791  0.953745 0.637169 0
nodraw
0  -623.170837 -287.719940 -114.283447  0.348079 0.667642 -0.658100  0.212810 0.753939 0
0  -707.172668 -329.138123 -114.283463  -0.663421 -0.284677 -0.691977  0.248862 0.759529 0
0  -728.211487 -269.013519 -114.283455  -0.688814 0.454890 -0.564456  0.239883 0.849798 0
nodraw
0  -623.170837 -287.719940 338.143066  0.348076 0.667632 0.658111  0.527584 0.637169 0
0  -623.170837 -287.719940 -114.283447  0.348079 0.667642 -0.658100  0.527584 0.012349 0
0  -704.455933 -267.421448 -114.283455  0.065601 0.735998 -0.673798  0.611344 0.012349 0
nodraw
0  -707.172668 -329.138123 -114.283463  -0.663421 -0.284677 -0.691977  0.103064 0.012349 0
0  -707.172668 -329.138123 338.143066  -0.663437 -0.284683 0.691958  0.103063 0.637169 0
0  -728.211487 -269.013519 338.143066  -0.688811 0.454876 0.564471  0.012349 0.637169 0
nodraw
0  -638.628479 -447.860229 338.143066  -0.578261 -0.432212 0.691958  0.077652 0.752136 0
0  -597.078430 -496.142670 338.143066  0.049529 -0.823966 0.564471  0.086630 0.661867 0
0  -583.821899 -476.365845 338.143066  0.670199 -0.311190 0.673791  0.118256 0.674091 0
nodraw
0  -560.758362 -395.821625 -114.283447  0.752234 -0.032377 -0.658100  0.719801 0.012349 0
0  -573.406067 -331.056030 -114.283455  0.804091 0.030015 -0.593748  0.808743 0.012349 0
0  -573.406067 -331.056030 338.143066  0.804073 0.029999 0.593773  0.808743 0.637169 0
nodraw
0  -675.842468 -390.197693 -114.283455  -0.415977 -0.630701 -0.655118  0.225496 0.012349 0
0  -638.628479 -447.860229 -114.283463  -0.578248 -0.432201 -0.691976  0.323230 0.012349 0
0  -638.628479 -447.860229 338.143066  -0.578261 -0.432212 0.691958  0.323230 0.637169 0
nodraw
0  -560.758362 -395.821625 -114.283447  0.752234 -0.032377 -0.658100  0.147508 0.757727 0
0  -638.628479 -447.860229 -114.283463  -0.578248 -0.432201 -0.691976  0.183559 0.752136 0
0  -675.842468 -390.197693 -114.283455  -0.415977 -0.630701 -0.655118  0.179813 0.849798 0
nodraw
0  -573.406067 -331.056030 338.143066  0.804073 0.029999 0.593773  0.118256 0.846552 0
0  -675.842468 -390.197693 338.143066  -0.415987 -0.630690 0.655122  0.081398 0.849799 0
0  -638.628479 -447.860229 338.143066  -0.578261 -0.432212 0.691958  0.077652 0.752136 0
nodraw
0  -597.078430 -496.142670 -114.283455  0.049538 -0.823975 -0.564456  0.895140 0.012349 0
0  -583.821899 -476.365845 -114.283455  0.670193 -0.311188 -0.673797  0.929047 0.012349 0
0  -583.821899 -476.365845 338.143066  0.670199 -0.311190 0.673791  0.929047 0.637169 0
nodraw
0  -560.758362 -395.821625 -114.283447  0.752234 -0.032377 -0.658100  0.147508 0.757727 0
0  -583.821899 -476.365845 -114.283455  0.670193 -0.311188 -0.673797  0.142954 0.674091 0
0  -597.078430 -496.142670 -114.283455  0.049538 -0.823975 -0.564456  0.174580 0.661867 0
nodraw
0  -560.758362 -395.821625 338.143066  0.752225 -0.032374 0.658111  0.719801 0.637169 0
0  -583.821899 -476.365845 338.143066  0.670199 -0.311190 0.673791  0.636042 0.637169 0
0  -583.821899 -476.365845 -114.283455  0.670193 -0.311188 -0.673797  0.636042 0.012349 0
nodraw
0  -638.628479 -447.860229 -114.283463  -0.578248 -0.432201 -0.691976  0.323230 0.012349 0
0  -597.078430 -496.142670 -114.283455  0.049538 -0.823975 -0.564456  0.413944 0.012349 0
0  -597.078430 -496.142670 338.143066  0.049529 -0.823966 0.564471  0.413944 0.637169 0
nodraw
0  0.000000 774.534668 299.237762  -0.000002 0.776197 -0.630490  1.000000 0.500000 0
0  380.473022 658.998535 523.351501  0.368640 0.638502 0.675588  0.916667 1.000000 0
0  387.267334 670.766663 299.237762  0.388101 0.672216 -0.630479  0.916667 0.500000 0
nodraw
0  387.267334 670.766663 299.237762  0.388101 0.672216 -0.630479  0.916667 0.500000 0
0  658.998535 380.473022 523.351501  0.638505 0.368640 0.675586  0.833333 1.000000 0
0  670.766663 387.267334 299.237762  0.672205 0.388101 -0.630490  0.833333 0.500000 0
nodraw
0  670.766663 387.267334 299.237762  0.672205 0.388101 -0.630490  0.833333 0.500000 0
0  760.946045 -0.000000 523.351501  0.737282 -0.000000 0.675585  0.750000 1.000000 0
0  774.534668 -0.000000 299.237762  0.776211 0.000002 -0.630473  0.750000 0.500000 0
nodraw
0  774.534668 -0.000000 299.237762  0.776211 0.000002 -0.630473  0.750000 0.500000 0
0  658.998535 -380.473022 523.351501  0.638517 -0.368649 0.675569  0.666667 1.000000 0
0  670.766663 -387.267334 299.237762  0.672208 -0.388097 -0.630490  0.666667 0.500000 0
nodraw
0  670.766663 -387.267334 299.237762  0.672208 -0.388097 -0.630490  0.666667 0.500000 0
0  380.473022 -658.998535 523.351501  0.368640 -0.638505 0.675586  0.583333 1.000000 0
0  387.267334 -670.766663 299.237762  0.388105 -0.672213 -0.630479  0.583333 0.500000 0
nodraw
0  387.267334 -670.766663 299.237762  0.388105 -0.672213 -0.630479  0.583333 0.500000 0
0  -0.000000 -760.946045 523.351501  -0.000001 -0.737282 0.675586  0.500000 1.000000 0
0  0.000000 -774.534668 299.237762  0.000002 -0.776197 -0.630490  0.500000 0.500000 0
nodraw
0  0.000000 -774.534668 299.237762  0.000002 -0.776197 -0.630490  0.500000 0.500000 0
0  -380.473022 -658.998535 523.351501  -0.368640 -0.638502 0.675588  0.416667 1.000000 0
0  -387.267334 -670.766663 299.237762  -0.388103 -0.672219 -0.630474  0.416667 0.500000 0
nodraw
0  -387.267334 -670.766663 299.237762  -0.388103 -0.672219 -0.630474  0.416667 0.500000 0
0  -658.998535 -380.473022 523.351501  -0.638514 -0.368646 0.675574  0.333333 1.000000 0
0  -670.766663 -387.267334 299.237762  -0.672205 -0.388101 -0.630490  0.333333 0.500000 0
nodraw
0  -670.766663 -387.267334 299.237762  -0.672205 -0.388101 -0.630490  0.333333 0.500000 0
0  -760.946045 -0.000000 523.351501  -0.737282 0.000000 0.675585  0.250000 1.000000 0
0  -774.534668 -0.000000 299.237762  -0.776206 -0.000002 -0.630479  0.250000 0.500000 0
nodraw
0  -774.534668 -0.000000 299.237762  -0.776206 -0.000002 -0.630479  0.250000 0.500000 0
0  -658.998535 380.473022 523.351501  -0.638532 0.368657 0.675551  0.166667 1.000000 0
0  -670.766663 387.267334 299.237762  -0.672208 0.388097 -0.630490  0.166667 0.500000 0
nodraw
0  658.998535 -380.473022 523.351501  0.638517 -0.368649 0.675569  0.457846 0.130000 0
0  658.998535 380.473022 523.351501  0.638505 0.368640 0.675586  0.457846 0.370000 0
0  -658.998535 380.473022 523.351501  -0.638532 0.368657 0.675551  0.042154 0.370000 0
nodraw
0  -670.766663 387.267334 299.237762  -0.672208 0.388097 -0.630490  0.166667 0.500000 0
0  -380.473022 658.998535 523.351501  -0.368640 0.638505 0.675586  0.083333 1.000000 0
0  -387.267334 670.766663 299.237762  -0.388107 0.672217 -0.630474  0.083333 0.500000 0
nodraw
0  -387.267334 670.766663 299.237762  -0.388107 0.672217 -0.630474  0.083333 0.500000 0
0  -0.000000 760.946045 523.351501  0.000001 0.737292 0.675574  0.000000 1.000000 0
0  0.000000 774.534668 299.237762  -0.000002 0.776197 -0.630490  0.000000 0.500000 0
nodraw
0  774.534668 -0.000000 299.237762  0.776211 0.000002 -0.630473  0.990000 0.250000 0
0  -387.267334 -670.766663 299.237762  -0.388103 -0.672219 -0.630474  0.630000 0.042154 0
0  -387.267334 670.766663 299.237762  -0.388107 0.672217 -0.630474  0.630000 0.457846 0
nodraw
0  -0.000001 702.660522 756.100220  -0.000001 0.825410 -0.564534  1.000000 0.500000 0
0  348.808655 604.154236 777.507324  0.338323 0.585996 0.736305  0.916667 1.000000 0
0  351.330261 608.521790 756.100220  0.412713 0.714842 -0.564508  0.916667 0.500000 0
nodraw
0  351.330261 608.521790 756.100220  0.412713 0.714842 -0.564508  0.916667 0.500000 0
0  604.154236 348.808655 777.507324  0.585997 0.338328 0.736303  0.833333 1.000000 0
0  608.521790 351.330261 756.100220  0.714825 0.412707 -0.564534  0.833333 0.500000 0
nodraw
0  608.521790 351.330261 756.100220  0.714825 0.412707 -0.564534  0.833333 0.500000 0
0  697.617310 0.000000 777.507324  0.676653 0.000001 0.736302  0.750000 1.000000 0
0  702.660522 -0.000001 756.100220  0.825422 0.000001 -0.564517  0.750000 0.500000 0
nodraw
0  702.660522 -0.000001 756.100220  0.825422 0.000001 -0.564517  0.750000 0.500000 0
0  604.154236 -348.808655 777.507324  0.586011 -0.338331 0.736290  0.666667 1.000000 0
0  608.521790 -351.330261 756.100220  0.714827 -0.412704 -0.564533  0.666667 0.500000 0
nodraw
0  608.521790 -351.330261 756.100220  0.714827 -0.412704 -0.564533  0.666667 0.500000 0
0  348.808655 -604.154236 777.507324  0.338327 -0.585997 0.736303  0.583333 1.000000 0
0  351.330261 -608.521790 756.100220  0.412711 -0.714834 -0.564519  0.583333 0.500000 0
nodraw
0  351.330261 -608.521790 756.100220  0.412711 -0.714834 -0.564519  0.583333 0.500000 0
0  -0.000001 -697.617310 777.507324  0.000001 -0.676653 0.736302  0.500000 1.000000 0
0  -0.000001 -702.660522 756.100220  0.000001 -0.825410 -0.564534  0.500000 0.500000 0
nodraw
0  -0.000001 -702.660522 756.100220  0.000001 -0.825410 -0.564534  0.500000 0.500000 0
0  -348.808655 -604.154236 777.507324  -0.338323 -0.585996 0.736306  0.416667 1.000000 0
0  -351.330261 -608.521790 756.100220  -0.412716 -0.714848 -0.564498  0.416667 0.500000 0
nodraw
0  -351.330261 -608.521790 756.100220  -0.412716 -0.714848 -0.564498  0.416667 0.500000 0
0  -604.154236 -348.808655 777.507324  -0.586005 -0.338333 0.736294  0.333333 1.000000 0
0  -608.521790 -351.330261 756.100220  -0.714825 -0.412707 -0.564534  0.333333 0.500000 0
nodraw
0  -608.521790 -351.330261 756.100220  -0.714825 -0.412707 -0.564534  0.333333 0.500000 0
0  -697.617310 0.000000 777.507324  -0.676653 -0.000001 0.736302  0.250000 1.000000 0
0  -702.660522 -0.000001 756.100220  -0.825422 -0.000001 -0.564516  0.250000 0.500000 0
nodraw
0  -702.660522 -0.000001 756.100220  -0.825422 -0.000001 -0.564516  0.250000 0.500000 0
0  -604.154236 348.808655 777.507324  -0.586024 0.338339 0.736276  0.166667 1.000000 0
0  -608.521790 351.330261 756.100220  -0.714825 0.412702 -0.564537  0.166667 0.500000 0
nodraw
0  604.154236 -348.808655 777.507324  0.586011 -0.338331 0.736290  0.457846 0.130000 0
0  604.154236 348.808655 777.507324  0.585997 0.338328 0.736303  0.457846 0.370000 0
0  -604.154236 348.808655 777.507324  -0.586024 0.338339 0.736276  0.042154 0.370000 0
nodraw
0  -608.521790 351.330261 756.100220  -0.714825 0.412702 -0.564537  0.166667 0.500000 0
0  -348.808655 604.154236 777.507324  -0.338327 0.585997 0.736304  0.083333 1.000000 0
0  -351.330261 608.521790 756.100220  -0.412706 0.714826 -0.564533  0.083333 0.500000 0
nodraw
0  -351.330261 608.521790 756.100220  -0.412706 0.714826 -0.564533  0.083333 0.500000 0
0  -0.000001 697.617310 777.507324  -0.000001 0.676662 0.736293  0.000000 1.000000 0
0  -0.000001 702.660522 756.100220  -0.000001 0.825410 -0.564534  0.000000 0.500000 0
nodraw
0  702.660522 -0.000001 756.100220  0.825422 0.000001 -0.564517  0.990000 0.250000 0
0  351.330261 -608.521790 756.100220  0.412711 -0.714834 -0.564519  0.870000 0.042154 0
0  -351.330261 -608.521790 756.100220  -0.412716 -0.714848 -0.564498  0.630000 0.042154 0
nodraw
0  0.000000 774.534668 299.237762  -0.000002 0.776197 -0.630490  1.000000 0.500000 0
0  -0.000000 760.946045 523.351501  0.000001 0.737292 0.675574  1.000000 1.000000 0
0  380.473022 658.998535 523.351501  0.368640 0.638502 0.675588  0.916667 1.000000 0
nodraw
0  387.267334 670.766663 299.237762  0.388101 0.672216 -0.630479  0.916667 0.500000 0
0  380.473022 658.998535 523.351501  0.368640 0.638502 0.675588  0.916667 1.000000 0
0  658.998535 380.473022 523.351501  0.638505 0.368640 0.675586  0.833333 1.000000 0
nodraw
0  670.766663 387.267334 299.237762  0.672205 0.388101 -0.630490  0.833333 0.500000 0
0  658.998535 380.473022 523.351501  0.638505 0.368640 0.675586  0.833333 1.000000 0
0  760.946045 -0.000000 523.351501  0.737282 -0.000000 0.675585  0.750000 1.000000 0
nodraw
0  774.534668 -0.000000 299.237762  0.776211 0.000002 -0.630473  0.750000 0.500000 0
0  760.946045 -0.000000 523.351501  0.737282 -0.000000 0.675585  0.750000 1.000000 0
0  658.998535 -380.473022 523.351501  0.638517 -0.368649 0.675569  0.666667 1.000000 0
nodraw
0  670.766663 -387.267334 299.237762  0.672208 -0.388097 -0.630490  0.666667 0.500000 0
0  658.998535 -380.473022 523.351501  0.638517 -0.368649 0.675569  0.666667 1.000000 0
0  380.473022 -658.998535 523.351501  0.368640 -0.638505 0.675586  0.583333 1.000000 0
nodraw
0  387.267334 -670.766663 299.237762  0.388105 -0.672213 -0.630479  0.583333 0.500000 0
0  380.473022 -658.998535 523.351501  0.368640 -0.638505 0.675586  0.583333 1.000000 0
0  -0.000000 -760.946045 523.351501  -0.000001 -0.737282 0.675586  0.500000 1.000000 0
nodraw
0  0.000000 -774.534668 299.237762  0.000002 -0.776197 -0.630490  0.500000 0.500000 0
0  -0.000000 -760.946045 523.351501  -0.000001 -0.737282 0.675586  0.500000 1.000000 0
0  -380.473022 -658.998535 523.351501  -0.368640 -0.638502 0.675588  0.416667 1.000000 0
nodraw
0  -387.267334 -670.766663 299.237762  -0.388103 -0.672219 -0.630474  0.416667 0.500000 0
0  -380.473022 -658.998535 523.351501  -0.368640 -0.638502 0.675588  0.416667 1.000000 0
0  -658.998535 -380.473022 523.351501  -0.638514 -0.368646 0.675574  0.333333 1.000000 0
nodraw
0  -670.766663 -387.267334 299.237762  -0.672205 -0.388101 -0.630490  0.333333 0.500000 0
0  -658.998535 -380.473022 523.351501  -0.638514 -0.368646 0.675574  0.333333 1.000000 0
0  -760.946045 -0.000000 523.351501  -0.737282 0.000000 0.675585  0.250000 1.000000 0
nodraw
0  -774.534668 -0.000000 299.237762  -0.776206 -0.000002 -0.630479  0.250000 0.500000 0
0  -760.946045 -0.000000 523.351501  -0.737282 0.000000 0.675585  0.250000 1.000000 0
0  -658.998535 380.473022 523.351501  -0.638532 0.368657 0.675551  0.166667 1.000000 0
nodraw
0  658.998535 380.473022 523.351501  0.638505 0.368640 0.675586  0.457846 0.370000 0
0  380.473022 658.998535 523.351501  0.368640 0.638502 0.675588  0.370000 0.457846 0
0  -658.998535 380.473022 523.351501  -0.638532 0.368657 0.675551  0.042154 0.370000 0
nodraw
0  380.473022 658.998535 523.351501  0.368640 0.638502 0.675588  0.370000 0.457846 0
0  -0.000000 760.946045 523.351501  0.000001 0.737292 0.675574  0.250000 0.490000 0
0  -658.998535 380.473022 523.351501  -0.638532 0.368657 0.675551  0.042154 0.370000 0
nodraw
0  -0.000000 760.946045 523.351501  0.000001 0.737292 0.675574  0.250000 0.490000 0
0  -380.473022 658.998535 523.351501  -0.368640 0.638505 0.675586  0.130000 0.457846 0
0  -658.998535 380.473022 523.351501  -0.638532 0.368657 0.675551  0.042154 0.370000 0
nodraw
0  -658.998535 380.473022 523.351501  -0.638532 0.368657 0.675551  0.042154 0.370000 0
0  -760.946045 -0.000000 523.351501  -0.737282 0.000000 0.675585  0.010000 0.250000 0
0  -658.998535 -380.473022 523.351501  -0.638514 -0.368646 0.675574  0.042154 0.130000 0
nodraw
0  -658.998535 -380.473022 523.351501  -0.638514 -0.368646 0.675574  0.042154 0.130000 0
0  -380.473022 -658.998535 523.351501  -0.368640 -0.638502 0.675588  0.130000 0.042154 0
0  -658.998535 380.473022 523.351501  -0.638532 0.368657 0.675551  0.042154 0.370000 0
nodraw
0  -380.473022 -658.998535 523.351501  -0.368640 -0.638502 0.675588  0.130000 0.042154 0
0  -0.000000 -760.946045 523.351501  -0.000001 -0.737282 0.675586  0.250000 0.010000 0
0  -658.998535 380.473022 523.351501  -0.638532 0.368657 0.675551  0.042154 0.370000 0
nodraw
0  -0.000000 -760.946045 523.351501  -0.000001 -0.737282 0.675586  0.250000 0.010000 0
0  380.473022 -658.998535 523.351501  0.368640 -0.638505 0.675586  0.370000 0.042154 0
0  658.998535 -380.473022 523.351501  0.638517 -0.368649 0.675569  0.457846 0.130000 0
nodraw
0  658.998535 -380.473022 523.351501  0.638517 -0.368649 0.675569  0.457846 0.130000 0
0  760.946045 -0.000000 523.351501  0.737282 -0.000000 0.675585  0.490000 0.250000 0
0  658.998535 380.473022 523.351501  0.638505 0.368640 0.675586  0.457846 0.370000 0
nodraw
0  -0.000000 -760.946045 523.351501  -0.000001 -0.737282 0.675586  0.250000 0.010000 0
0  658.998535 -380.473022 523.351501  0.638517 -0.368649 0.675569  0.457846 0.130000 0
0  -658.998535 380.473022 523.351501  -0.638532 0.368657 0.675551  0.042154 0.370000 0
nodraw
0  -670.766663 387.267334 299.237762  -0.672208 0.388097 -0.630490  0.166667 0.500000 0
0  -658.998535 380.473022 523.351501  -0.638532 0.368657 0.675551  0.166667 1.000000 0
0  -380.473022 658.998535 523.351501  -0.368640 0.638505 0.675586  0.083333 1.000000 0
nodraw
0  -387.267334 670.766663 299.237762  -0.388107 0.672217 -0.630474  0.083333 0.500000 0
0  -380.473022 658.998535 523.351501  -0.368640 0.638505 0.675586  0.083333 1.000000 0
0  -0.000000 760.946045 523.351501  0.000001 0.737292 0.675574  0.000000 1.000000 0
nodraw
0  -387.267334 670.766663 299.237762  -0.388107 0.672217 -0.630474  0.630000 0.457846 0
0  0.000000 774.534668 299.237762  -0.000002 0.776197 -0.630490  0.750000 0.490000 0
0  387.267334 670.766663 299.237762  0.388101 0.672216 -0.630479  0.870000 0.457846 0
nodraw
0  387.267334 670.766663 299.237762  0.388101 0.672216 -0.630479  0.870000 0.457846 0
0  670.766663 387.267334 299.237762  0.672205 0.388101 -0.630490  0.957846 0.370000 0
0  774.534668 -0.000000 299.237762  0.776211 0.000002 -0.630473  0.990000 0.250000 0
nodraw
0  774.534668 -0.000000 299.237762  0.776211 0.000002 -0.630473  0.990000 0.250000 0
0  670.766663 -387.267334 299.237762  0.672208 -0.388097 -0.630490  0.957846 0.130000 0
0  387.267334 -670.766663 299.237762  0.388105 -0.672213 -0.630479  0.870000 0.042154 0
nodraw
0  387.267334 -670.766663 299.237762  0.388105 -0.672213 -0.630479  0.870000 0.042154 0
0  0.000000 -774.534668 299.237762  0.000002 -0.776197 -0.630490  0.750000 0.010000 0
0  -387.267334 -670.766663 299.237762  -0.388103 -0.672219 -0.630474  0.630000 0.042154 0
nodraw
0  -387.267334 -670.766663 299.237762  -0.388103 -0.672219 -0.630474  0.630000 0.042154 0
0  -670.766663 -387.267334 299.237762  -0.672205 -0.388101 -0.630490  0.542154 0.130000 0
0  -774.534668 -0.000000 299.237762  -0.776206 -0.000002 -0.630479  0.510000 0.250000 0
nodraw
0  -774.534668 -0.000000 299.237762  -0.776206 -0.000002 -0.630479  0.510000 0.250000 0
0  -670.766663 387.267334 299.237762  -0.672208 0.388097 -0.630490  0.542154 0.370000 0
0  -387.267334 670.766663 299.237762  -0.388107 0.672217 -0.630474  0.630000 0.457846 0
nodraw
0  -387.267334 670.766663 299.237762  -0.388107 0.672217 -0.630474  0.630000 0.457846 0
0  387.267334 670.766663 299.237762  0.388101 0.672216 -0.630479  0.870000 0.457846 0
0  774.534668 -0.000000 299.237762  0.776211 0.000002 -0.630473  0.990000 0.250000 0
nodraw
0  774.534668 -0.000000 299.237762  0.776211 0.000002 -0.630473  0.990000 0.250000 0
0  387.267334 -670.766663 299.237762  0.388105 -0.672213 -0.630479  0.870000 0.042154 0
0  -387.267334 -670.766663 299.237762  -0.388103 -0.672219 -0.630474  0.630000 0.042154 0
nodraw
0  -387.267334 -670.766663 299.237762  -0.388103 -0.672219 -0.630474  0.630000 0.042154 0
0  -774.534668 -0.000000 299.237762  -0.776206 -0.000002 -0.630479  0.510000 0.250000 0
0  -387.267334 670.766663 299.237762  -0.388107 0.672217 -0.630474  0.630000 0.457846 0
nodraw
0  -0.000001 702.660522 756.100220  -0.000001 0.825410 -0.564534  1.000000 0.500000 0
0  -0.000001 697.617310 777.507324  -0.000001 0.676662 0.736293  1.000000 1.000000 0
0  348.808655 604.154236 777.507324  0.338323 0.585996 0.736305  0.916667 1.000000 0
nodraw
0  351.330261 608.521790 756.100220  0.412713 0.714842 -0.564508  0.916667 0.500000 0
0  348.808655 604.154236 777.507324  0.338323 0.585996 0.736305  0.916667 1.000000 0
0  604.154236 348.808655 777.507324  0.585997 0.338328 0.736303  0.833333 1.000000 0
nodraw
0  608.521790 351.330261 756.100220  0.714825 0.412707 -0.564534  0.833333 0.500000 0
0  604.154236 348.808655 777.507324  0.585997 0.338328 0.736303  0.833333 1.000000 0
0  697.617310 0.000000 777.507324  0.676653 0.000001 0.736302  0.750000 1.000000 0
nodraw
0  702.660522 -0.000001 756.100220  0.825422 0.000001 -0.564517  0.750000 0.500000 0
0  697.617310 0.000000 777.507324  0.676653 0.000001 0.736302  0.750000 1.000000 0
0  604.154236 -348.808655 777.507324  0.586011 -0.338331 0.736290  0.666667 1.000000 0
nodraw
0  608.521790 -351.330261 756.100220  0.714827 -0.412704 -0.564533  0.666667 0.500000 0
0  604.154236 -348.808655 777.507324  0.586011 -0.338331 0.736290  0.666667 1.000000 0
0  348.808655 -604.154236 777.507324  0.338327 -0.585997 0.736303  0.583333 1.000000 0
nodraw
0  351.330261 -608.521790 756.100220  0.412711 -0.714834 -0.564519  0.583333 0.500000 0
0  348.808655 -604.154236 777.507324  0.338327 -0.585997 0.736303  0.583333 1.000000 0
0  -0.000001 -697.617310 777.507324  0.000001 -0.676653 0.736302  0.500000 1.000000 0
nodraw
0  -0.000001 -702.660522 756.100220  0.000001 -0.825410 -0.564534  0.500000 0.500000 0
0  -0.000001 -697.617310 777.507324  0.000001 -0.676653 0.736302  0.500000 1.000000 0
0  -348.808655 -604.154236 777.507324  -0.338323 -0.585996 0.736306  0.416667 1.000000 0
nodraw
0  -351.330261 -608.521790 756.100220  -0.412716 -0.714848 -0.564498  0.416667 0.500000 0
0  -348.808655 -604.154236 777.507324  -0.338323 -0.585996 0.736306  0.416667 1.000000 0
0  -604.154236 -348.808655 777.507324  -0.586005 -0.338333 0.736294  0.333333 1.000000 0
nodraw
0  -608.521790 -351.330261 756.100220  -0.714825 -0.412707 -0.564534  0.333333 0.500000 0
0  -604.154236 -348.808655 777.507324  -0.586005 -0.338333 0.736294  0.333333 1.000000 0
0  -697.617310 0.000000 777.507324  -0.676653 -0.000001 0.736302  0.250000 1.000000 0
nodraw
0  -702.660522 -0.000001 756.100220  -0.825422 -0.000001 -0.564516  0.250000 0.500000 0
0  -697.617310 0.000000 777.507324  -0.676653 -0.000001 0.736302  0.250000 1.000000 0
0  -604.154236 348.808655 777.507324  -0.586024 0.338339 0.736276  0.166667 1.000000 0
nodraw
0  604.154236 348.808655 777.507324  0.585997 0.338328 0.736303  0.457846 0.370000 0
0  348.808655 604.154236 777.507324  0.338323 0.585996 0.736305  0.370000 0.457846 0
0  -604.154236 348.808655 777.507324  -0.586024 0.338339 0.736276  0.042154 0.370000 0
nodraw
0  348.808655 604.154236 777.507324  0.338323 0.585996 0.736305  0.370000 0.457846 0
0  -0.000001 697.617310 777.507324  -0.000001 0.676662 0.736293  0.250000 0.490000 0
0  -604.154236 348.808655 777.507324  -0.586024 0.338339 0.736276  0.042154 0.370000 0
nodraw
0  -0.000001 697.617310 777.507324  -0.000001 0.676662 0.736293  0.250000 0.490000 0
0  -348.808655 604.154236 777.507324  -0.338327 0.585997 0.736304  0.130000 0.457846 0
0  -604.154236 348.808655 777.507324  -0.586024 0.338339 0.736276  0.042154 0.370000 0
nodraw
0  -604.154236 348.808655 777.507324  -0.586024 0.338339 0.736276  0.042154 0.370000 0
0  -697.617310 0.000000 777.507324  -0.676653 -0.000001 0.736302  0.010000 0.250000 0
0  -604.154236 -348.808655 777.507324  -0.586005 -0.338333 0.736294  0.042154 0.130000 0
nodraw
0  -604.154236 -348.808655 777.507324  -0.586005 -0.338333 0.736294  0.042154 0.130000 0
0  -348.808655 -604.154236 777.507324  -0.338323 -0.585996 0.736306  0.130000 0.042154 0
0  -604.154236 348.808655 777.507324  -0.586024 0.338339 0.736276  0.042154 0.370000 0
nodraw
0  -348.808655 -604.154236 777.507324  -0.338323 -0.585996 0.736306  0.130000 0.042154 0
0  -0.000001 -697.617310 777.507324  0.000001 -0.676653 0.736302  0.250000 0.010000 0
0  -604.154236 348.808655 777.507324  -0.586024 0.338339 0.736276  0.042154 0.370000 0
nodraw
0  -0.000001 -697.617310 777.507324  0.000001 -0.676653 0.736302  0.250000 0.010000 0
0  348.808655 -604.154236 777.507324  0.338327 -0.585997 0.736303  0.370000 0.042154 0
0  604.154236 -348.808655 777.507324  0.586011 -0.338331 0.736290  0.457846 0.130000 0
nodraw
0  604.154236 -348.808655 777.507324  0.586011 -0.338331 0.736290  0.457846 0.130000 0
0  697.617310 0.000000 777.507324  0.676653 0.000001 0.736302  0.490000 0.250000 0
0  604.154236 348.808655 777.507324  0.585997 0.338328 0.736303  0.457846 0.370000 0
nodraw
0  -0.000001 -697.617310 777.507324  0.000001 -0.676653 0.736302  0.250000 0.010000 0
0  604.154236 -348.808655 777.507324  0.586011 -0.338331 0.736290  0.457846 0.130000 0
0  -604.154236 348.808655 777.507324  -0.586024 0.338339 0.736276  0.042154 0.370000 0
nodraw
0  -608.521790 351.330261 756.100220  -0.714825 0.412702 -0.564537  0.166667 0.500000 0
0  -604.154236 348.808655 777.507324  -0.586024 0.338339 0.736276  0.166667 1.000000 0
0  -348.808655 604.154236 777.507324  -0.338327 0.585997 0.736304  0.083333 1.000000 0
nodraw
0  -351.330261 608.521790 756.100220  -0.412706 0.714826 -0.564533  0.083333 0.500000 0
0  -348.808655 604.154236 777.507324  -0.338327 0.585997 0.736304  0.083333 1.000000 0
0  -0.000001 697.617310 777.507324  -0.000001 0.676662 0.736293  0.000000 1.000000 0
nodraw
0  -351.330261 608.521790 756.100220  -0.412706 0.714826 -0.564533  0.630000 0.457846 0
0  -0.000001 702.660522 756.100220  -0.000001 0.825410 -0.564534  0.750000 0.490000 0
0  351.330261 608.521790 756.100220  0.412713 0.714842 -0.564508  0.870000 0.457846 0
nodraw
0  351.330261 608.521790 756.100220  0.412713 0.714842 -0.564508  0.870000 0.457846 0
0  608.521790 351.330261 756.100220  0.714825 0.412707 -0.564534  0.957846 0.370000 0
0  702.660522 -0.000001 756.100220  0.825422 0.000001 -0.564517  0.990000 0.250000 0
nodraw
0  702.660522 -0.000001 756.100220  0.825422 0.000001 -0.564517  0.990000 0.250000 0
0  608.521790 -351.330261 756.100220  0.714827 -0.412704 -0.564533  0.957846 0.130000 0
0  351.330261 -608.521790 756.100220  0.412711 -0.714834 -0.564519  0.870000 0.042154 0
nodraw
0  351.330261 -608.521790 756.100220  0.412711 -0.714834 -0.564519  0.870000 0.042154 0
0  -0.000001 -702.660522 756.100220  0.000001 -0.825410 -0.564534  0.750000 0.010000 0
0  -351.330261 -608.521790 756.100220  -0.412716 -0.714848 -0.564498  0.630000 0.042154 0
nodraw
0  -351.330261 -608.521790 756.100220  -0.412716 -0.714848 -0.564498  0.630000 0.042154 0
0  -608.521790 -351.330261 756.100220  -0.714825 -0.412707 -0.564534  0.542154 0.130000 0
0  -702.660522 -0.000001 756.100220  -0.825422 -0.000001 -0.564516  0.510000 0.250000 0
nodraw
0  -702.660522 -0.000001 756.100220  -0.825422 -0.000001 -0.564516  0.510000 0.250000 0
0  -608.521790 351.330261 756.100220  -0.714825 0.412702 -0.564537  0.542154 0.370000 0
0  -351.330261 -608.521790 756.100220  -0.412716 -0.714848 -0.564498  0.630000 0.042154 0
nodraw
0  -608.521790 351.330261 756.100220  -0.714825 0.412702 -0.564537  0.542154 0.370000 0
0  -351.330261 608.521790 756.100220  -0.412706 0.714826 -0.564533  0.630000 0.457846 0
0  -351.330261 -608.521790 756.100220  -0.412716 -0.714848 -0.564498  0.630000 0.042154 0
nodraw
0  -351.330261 608.521790 756.100220  -0.412706 0.714826 -0.564533  0.630000 0.457846 0
0  351.330261 608.521790 756.100220  0.412713 0.714842 -0.564508  0.870000 0.457846 0
0  -351.330261 -608.521790 756.100220  -0.412716 -0.714848 -0.564498  0.630000 0.042154 0
nodraw
0  351.330261 608.521790 756.100220  0.412713 0.714842 -0.564508  0.870000 0.457846 0
0  702.660522 -0.000001 756.100220  0.825422 0.000001 -0.564517  0.990000 0.250000 0
0  -351.330261 -608.521790 756.100220  -0.412716 -0.714848 -0.564498  0.630000 0.042154 0
end
